<?xml version="1.0" encoding="utf-8"?>
<!-- Generator: Adobe Illustrator 19.0.0, SVG Export Plug-In . SVG Version: 6.00 Build 0)  -->
<svg version="1.1" id="transition" xmlns="http://www.w3.org/2000/svg" xmlns:xlink="http://www.w3.org/1999/xlink" x="0px" y="0px"
	 viewBox="0 0 748 666" style="top: 50%; left: 50%; transform: translate(-50%, -50%); max-width: none; max-height: none; width: 130vw; enable-background:new 0 0 748 666;" xml:space="preserve">
<style type="text/css">
	.bot0{fill:none;stroke:#000000;stroke-miterlimit:10;}
	.bot1{fill:#7A2A3C;}
	.bot2{fill:#002A17;}
	.bot3{fill:#FFFACE;}
	.bot4{fill:#2F1434;}
	.bot5{fill:#440000;}
</style>
<g id="bottle1" class="bottle">
	<g>
		<path class="bot0" d="M64,48.5C76,48.7,87,50,87.5,52s0,7,0,7s2.3,0.3,2.5,3.3s-0.3,13.3-0.3,13.3l-1,2.3c0,0,0.3,83.8,0.8,86.8
			s6.3,12.5,10.3,16.8s24,29.5,26,46s2.3,289.8,1,293.8s0,12.8-19.8,15s-78.9,6.9-95.8-3.8c0,0-7.8,0.3-7.3-35.3S3.5,254.5,4,239.8
			s11-37.3,23.3-52.5s14-19,14.5-31.5s1.3-79,1.3-79l-1.3-1.5L42,61l1.5-1.3c0,0-1.8-5.8,0.5-8S50.8,48.3,64,48.5z"/>
		<path class="bot0" d="M87.5,59C82,58.8,75.8,58.5,66,58.5s-22.5,1.3-22.5,1.3"/>
		<path class="bot0" d="M88.8,77.8c0,0-11.5-2.8-21.5-2.8S43,76.8,43,76.8"/>
		<path class="bot0" d="M42,136.8c0,0,22.3-3.3,46.8,0.8"/>
		<path class="bot0" d="M6.8,247L7,379.5c0,0,36.8,4.5,58.8,4s55.8-2,57.3-2.8s0.8-133.8,0.8-133.8S19,243.5,6.8,247z"/>
		<path class="bot1" d="M41.5,74.6l0.3-13.4l1.7-1.5l-0.7-4.6c0,0-0.2-2.5,1.1-3.5s3.6-2.1,3.6-2.1l2.3-0.5l5.1-1H59l10.3,0.7
			l7.8,0.6l6.2,0.8l4,1.3l0.3,7.4l1.2,0.8l0.9,1.1l0.5,1.9l-0.4,12.2l-0.3,1.3L88.6,78l0.3,20.1l0.3,39.4l-3.8-0.4l-10.5-1.2
			l-14.3-0.3l-10.4,0.3l-8.2,0.9L43,77"/>
		<polygon class="bot2" points="89.2,137.5 89.3,160 89.6,163.3 89.7,165.3 94.3,173.9 99.5,181.1 101.8,183.6 106.1,188.8 
			112.8,198.6 119,209 123.6,218.5 125.3,224.7 125.8,228.8 126.2,234.3 126.6,250.3 127,285.6 127.6,400.9 127,519 126.9,520.9 
			126.6,521.8 125.8,525.4 124.6,528.1 123,530.2 119.2,532.9 114.1,534.9 106.6,536.1 99.4,536.9 90.2,537.4 78.3,538.4 
			66.5,538.8 55,539.1 44.9,538.8 33.5,537.9 20.8,535.9 11.1,532.3 8.6,530.6 5.9,523.8 4.7,515.4 3.9,503 4,493.2 3.9,355.9 
			3.8,238.4 5.4,229.6 8.5,220.2 13.9,207.6 22.4,193.6 31.3,181.8 38.4,171.6 40.3,166.8 41.5,160.4 42.4,136.5 46.4,135.9 
			52.3,135.6 61.3,135.6 77.8,135.9 		"/>
		<polygon class="bot3" points="6.7,247.3 7,379.6 19.5,381 44.5,382.7 59.5,383 71,383 88.1,382.9 106,382 123,380.5 123.4,377.1 
			123.8,353.3 124.1,323.8 124,281.8 124,247 94,246.1 54,245.6 33,245.5 21.8,245.6 		"/>
		<path class="bot0" d="M43.5,59.8"/>
	</g>
	<g id="Layer_2">
	</g>
</g>
<g id="bottle2" class="bottle">
	<g>
		<polygon class="bot4" points="213.2,573.6 213.3,551.1 213.6,547.8 213.7,545.8 218.3,537.2 223.5,530 225.8,527.5 230.1,522.3 
			236.8,512.4 243,502.1 247.6,492.6 249.3,486.4 249.8,482.3 250.2,476.8 250.6,460.8 251,425.5 251.6,310.2 251,192.1 
			250.9,190.2 250.6,189.3 249.8,185.6 248.6,182.9 247,180.9 243.2,178.2 238.1,176.1 230.6,175 223.4,174.2 214.2,173.7 
			202.3,172.6 190.5,172.3 179,172 168.9,172.3 157.5,173.2 144.8,175.1 135.1,178.8 132.6,180.4 129.9,187.3 128.7,195.6 
			127.9,208.1 128,217.9 127.9,355.1 127.8,472.6 129.4,481.4 132.5,490.9 137.9,503.5 146.4,517.5 155.3,529.3 162.4,539.4 
			164.3,544.3 165.5,550.6 166.4,574.6 170.4,575.1 176.3,575.4 185.3,575.5 201.8,575.2 		"/>
		<path class="bot0" d="M167.5,651.3"/>
		<path class="bot1" d="M165.5,636.5l0.3,13.4l1.7,1.5l-0.7,4.6c0,0-0.2,2.5,1.1,3.5s3.6,2.1,3.6,2.1l2.3,0.5l5.1,1h4.3l10.3-0.6
			l7.8-0.6l6.2-0.8l4-1.3l0.3-7.4l1.2-0.7l0.9-1.1l0.5-1.9l-0.4-12.2l-0.3-1.3l-0.8-1.9l0.3-20.1l0.3-39.4l-3.8,0.4l-10.5,1.2
			l-14.3,0.3l-10.4-0.3l-8.2-0.9l1,59.8"/>
		<polygon class="bot3" points="130.7,463.8 131,331.5 143.5,330.1 168.5,328.4 183.5,328 195,328 212.1,328.2 230,329 247,330.6 
			247.4,333.9 247.8,357.8 248.1,387.3 248,429.3 248,464.1 218,464.9 178,465.4 157,465.6 145.8,465.4 		"/>
		<path class="bot0" d="M188,662.6c12-0.2,23-1.5,23.5-3.5s0-7,0-7s2.3-0.3,2.5-3.3s-0.3-13.3-0.3-13.3l-1-2.3c0,0,0.3-83.8,0.8-86.8
			s6.3-12.5,10.3-16.8s24-29.5,26-46s2.3-289.8,1-293.8s0-12.8-19.8-15s-78.9-6.9-95.8,3.8c0,0-7.8-0.3-7.3,35.3s-0.5,242.5,0,257.3
			s11,37.3,23.3,52.5s14,19,14.5,31.5s1.3,79,1.3,79l-1.3,1.5l0.3,14.3l1.5,1.3c0,0-1.8,5.8,0.5,8S174.8,662.8,188,662.6z"/>
		<path class="bot0" d="M211.5,652.1c-5.5,0.3-11.8,0.5-21.5,0.5s-22.5-1.3-22.5-1.3"/>
		<path class="bot0" d="M212.8,633.3c0,0-11.5,2.8-21.5,2.8s-24.3-1.8-24.3-1.8"/>
		<path class="bot0" d="M166,574.3c0,0,22.3,3.3,46.8-0.8"/>
		<path class="bot0" d="M130.8,464.1l0.3-132.5c0,0,36.8-4.5,58.8-4s55.8,2,57.3,2.8s0.8,133.8,0.8,133.8S143,467.6,130.8,464.1z"/>
	</g>
</g>
<g id="bottle3" class="bottle">
	<g>
		<polygon class="bot5" points="339.2,95.5 339.3,118 339.6,121.3 339.7,123.3 344.3,131.9 349.5,139.1 351.8,141.6 356.1,146.8 
			362.8,156.6 369,167 373.6,176.5 375.3,182.7 375.8,186.8 376.2,192.3 376.6,208.3 377,243.6 377.6,358.9 377,477 376.9,478.9 
			376.6,479.8 375.8,483.4 374.6,486.1 373,488.2 369.2,490.9 364.1,492.9 356.6,494.1 349.4,494.9 340.2,495.4 328.3,496.4 
			316.5,496.8 305,497.1 294.9,496.8 283.5,495.9 270.8,493.9 261.1,490.3 258.6,488.6 255.9,481.8 254.7,473.4 253.9,461 
			254,451.2 253.9,313.9 253.8,196.4 255.4,187.6 258.5,178.2 263.9,165.6 272.4,151.6 281.3,139.8 288.4,129.6 290.3,124.8 
			291.5,118.4 292.4,94.5 296.4,93.9 302.3,93.6 311.3,93.6 327.8,93.9 		"/>
		<path class="bot0" d="M293.5,17.8"/>
		<path class="bot1" d="M291.5,32.6l0.3-13.4l1.7-1.5l-0.7-4.6c0,0-0.2-2.5,1.1-3.5s3.6-2.1,3.6-2.1l2.3-0.5l5.1-1h4.3l10.3,0.7
			l7.8,0.6l6.2,0.8l4,1.3l0.3,7.4l1.2,0.8l0.9,1.1l0.5,1.9l-0.4,12.2l-0.3,1.3l-0.8,1.9l0.3,20.1l0.3,39.4l-3.8-0.4l-10.5-1.2
			l-14.3-0.3l-10.4,0.3l-8.2,0.9l1-59.8"/>
		<polygon class="bot3" points="256.7,205.3 257,337.6 269.5,339 294.5,340.7 309.5,341 321,341 338.1,340.9 356,340 373,338.5 
			373.4,335.1 373.8,311.3 374.1,281.8 374,239.8 374,205 344,204.1 304,203.6 283,203.5 271.8,203.6 		"/>
		<path class="bot0" d="M314,6.5c12,0.2,23,1.5,23.5,3.5s0,7,0,7s2.3,0.3,2.5,3.3s-0.3,13.3-0.3,13.3l-1,2.3c0,0,0.3,83.8,0.8,86.8
			s6.3,12.5,10.3,16.8s24,29.5,26,46s2.3,289.8,1,293.8s0,12.8-19.8,15s-78.9,6.9-95.8-3.8c0,0-7.8,0.3-7.3-35.3s-0.5-242.5,0-257.3
			s11-37.3,23.3-52.5s14-19,14.5-31.5s1.3-79,1.3-79l-1.3-1.5L292,19l1.5-1.3c0,0-1.8-5.8,0.5-8S300.8,6.3,314,6.5z"/>
		<path class="bot0" d="M337.5,17c-5.5-0.3-11.8-0.5-21.5-0.5s-22.5,1.3-22.5,1.3"/>
		<path class="bot0" d="M338.8,35.8c0,0-11.5-2.8-21.5-2.8S293,34.8,293,34.8"/>
		<path class="bot0" d="M292,94.8c0,0,22.3-3.3,46.8,0.8"/>
		<path class="bot0" d="M256.8,205l0.3,132.5c0,0,36.8,4.5,58.8,4s55.8-2,57.3-2.8s0.8-133.8,0.8-133.8S269,201.5,256.8,205z"/>
	</g>
</g>
<g id="bottle4" class="bottle">
	<g>
		<path class="bot0" d="M439,626.6c12-0.2,23-1.5,23.5-3.5s0-7,0-7s2.3-0.3,2.5-3.3s-0.3-13.3-0.3-13.3l-1-2.3c0,0,0.3-83.8,0.8-86.8
			s6.3-12.5,10.3-16.8s24-29.5,26-46s2.3-289.8,1-293.8s0-12.8-19.8-15s-78.9-6.9-95.8,3.8c0,0-7.8-0.3-7.3,35.3s-0.5,242.5,0,257.3
			s11,37.3,23.3,52.5s14,19,14.5,31.5s1.3,79,1.3,79l-1.3,1.5l0.3,14.3l1.5,1.3c0,0-1.8,5.8,0.5,8S425.8,626.8,439,626.6z"/>
		<path class="bot0" d="M462.5,616.1c-5.5,0.3-11.8,0.5-21.5,0.5s-22.5-1.3-22.5-1.3"/>
		<path class="bot0" d="M463.8,597.3c0,0-11.5,2.8-21.5,2.8s-24.3-1.8-24.3-1.8"/>
		<path class="bot0" d="M417,538.3c0,0,22.3,3.3,46.8-0.8"/>
		<path class="bot0" d="M381.8,428.1l0.3-132.5c0,0,36.8-4.5,58.8-4s55.8,2,57.3,2.8s0.8,133.8,0.8,133.8S394,431.6,381.8,428.1z"/>
		<path class="bot1" d="M416.5,600.5l0.3,13.4l1.7,1.5l-0.7,4.6c0,0-0.2,2.5,1.1,3.5s3.6,2.1,3.6,2.1l2.3,0.5l5.1,1h4.3l10.3-0.6
			l7.8-0.6l6.2-0.8l4-1.3l0.3-7.4l1.2-0.7l0.9-1.1l0.5-1.9l-0.4-12.2l-0.3-1.3l-0.8-1.9l0.3-20.1l0.3-39.4l-3.8,0.4l-10.5,1.2
			l-14.3,0.3l-10.4-0.3l-8.2-0.9l1,59.8"/>
		<polygon class="bot2" points="464.2,537.6 464.3,515.1 464.6,511.8 464.7,509.8 469.3,501.2 474.5,494 476.8,491.5 481.1,486.3 
			487.8,476.4 494,466.1 498.6,456.6 500.3,450.4 500.8,446.3 501.2,440.8 501.6,424.8 502,389.5 502.6,274.2 502,156.1 
			501.9,154.2 501.6,153.3 500.8,149.6 499.6,146.9 498,144.9 494.2,142.2 489.1,140.1 481.6,139 474.4,138.2 465.2,137.7 
			453.3,136.6 441.5,136.3 430,136 419.9,136.3 408.5,137.2 395.8,139.1 386.1,142.8 383.6,144.4 380.9,151.3 379.7,159.6 
			378.9,172.1 379,181.9 378.9,319.1 378.8,436.6 380.4,445.4 383.5,454.9 388.9,467.5 397.4,481.5 406.3,493.3 413.4,503.4 
			415.3,508.3 416.5,514.6 417.4,538.6 421.4,539.1 427.3,539.4 436.3,539.5 452.8,539.2 		"/>
		<polygon class="bot3" points="381.7,427.8 382,295.5 394.5,294.1 419.5,292.4 434.5,292 446,292 463.1,292.2 481,293 498,294.6 
			498.4,297.9 498.8,321.8 499.1,351.3 499,393.3 499,428.1 469,428.9 429,429.4 408,429.6 396.8,429.4 		"/>
		<path class="bot0" d="M418.5,615.3"/>
	</g>
</g>
<g id="bottle5" class="bottle">
	<g>
		<polygon class="bot4" points="588.2,97.4 588.3,119.9 588.6,123.2 588.7,125.3 593.3,133.8 598.5,141 600.8,143.5 605.1,148.8 
			611.8,158.6 618,168.9 622.6,178.4 624.3,184.6 624.8,188.8 625.2,194.3 625.6,210.2 626,245.5 626.6,360.8 626,478.9 
			625.9,480.8 625.6,481.8 624.8,485.4 623.6,488.1 622,490.1 618.2,492.8 613.1,494.9 605.6,496 598.4,496.8 589.2,497.3 
			577.3,498.4 565.5,498.7 554,499 543.9,498.7 532.5,497.8 519.8,495.9 510.1,492.3 507.6,490.6 504.9,483.8 503.7,475.4 
			502.9,462.9 503,453.1 502.9,315.9 502.8,198.4 504.4,189.6 507.5,180.1 512.9,167.5 521.4,153.5 530.3,141.8 537.4,131.6 
			539.3,126.8 540.5,120.4 541.4,96.4 545.4,95.9 551.3,95.6 560.3,95.5 576.8,95.8 		"/>
		<path class="bot0" d="M542.5,19.7"/>
		<path class="bot1" d="M540.5,34.5l0.3-13.4l1.7-1.5l-0.7-4.6c0,0-0.2-2.5,1.1-3.5s3.6-2.1,3.6-2.1l2.3-0.5l5.1-1h4.3l10.3,0.6
			l7.8,0.6l6.2,0.8l4,1.3l0.3,7.4l1.2,0.7l0.9,1.1l0.5,1.9l-0.4,12.2l-0.3,1.3l-0.8,1.9l0.3,20.1l0.3,39.4l-3.8-0.4l-10.5-1.2
			l-14.3-0.3l-10.4,0.3l-8.2,0.9l1-59.8"/>
		<polygon class="bot3" points="505.7,207.2 506,339.5 518.5,340.9 543.5,342.6 558.5,343 570,343 587.1,342.8 605,342 622,340.4 
			622.4,337.1 622.8,313.2 623.1,283.7 623,241.7 623,206.9 593,206.1 553,205.6 532,205.4 520.8,205.6 		"/>
		<path class="bot0" d="M563,8.4c12,0.2,23,1.5,23.5,3.5s0,7,0,7s2.3,0.3,2.5,3.3s-0.3,13.3-0.3,13.3l-1,2.3c0,0,0.3,83.8,0.8,86.8
			s6.3,12.5,10.3,16.8s24,29.5,26,46s2.3,289.8,1,293.8s0,12.8-19.8,15s-78.9,6.9-95.8-3.8c0,0-7.8,0.3-7.3-35.3s-0.5-242.5,0-257.3
			s11-37.3,23.3-52.5s14-19,14.5-31.5s1.3-79,1.3-79l-1.3-1.5l0.3-14.3l1.5-1.3c0,0-1.8-5.8,0.5-8S549.8,8.2,563,8.4z"/>
		<path class="bot0" d="M586.5,18.9c-5.5-0.3-11.8-0.5-21.5-0.5s-22.5,1.3-22.5,1.3"/>
		<path class="bot0" d="M587.8,37.7c0,0-11.5-2.8-21.5-2.8S542,36.7,542,36.7"/>
		<path class="bot0" d="M541,96.7c0,0,22.3-3.3,46.8,0.8"/>
		<path class="bot0" d="M505.8,206.9l0.3,132.5c0,0,36.8,4.5,58.8,4s55.8-2,57.3-2.8s0.8-133.8,0.8-133.8S518,203.4,505.8,206.9z"/>
	</g>
</g>
<g id="bottle6" class="bottle">
	<g>
		<polygon class="bot5" points="712.2,530.6 712.3,508.1 712.6,504.8 712.7,502.8 717.3,494.2 722.5,487 724.8,484.5 729.1,479.3 
			735.8,469.4 742,459.1 746.6,449.6 748.3,443.4 748.8,439.3 749.2,433.8 749.6,417.8 750,382.5 750.6,267.2 750,149.1 
			749.9,147.2 749.6,146.3 748.8,142.6 747.6,139.9 746,137.9 742.2,135.2 737.1,133.1 729.6,132 722.4,131.2 713.2,130.7 
			701.3,129.6 689.5,129.3 678,129 667.9,129.3 656.5,130.2 643.8,132.1 634.1,135.8 631.6,137.4 628.9,144.3 627.7,152.6 
			626.9,165.1 627,174.9 626.9,312.1 626.8,429.6 628.4,438.4 631.5,447.9 636.9,460.5 645.4,474.5 654.3,486.3 661.4,496.4 
			663.3,501.3 664.5,507.6 665.4,531.6 669.4,532.1 675.3,532.4 684.3,532.5 700.8,532.2 		"/>
		<path class="bot0" d="M666.5,608.3"/>
		<path class="bot1" d="M664.5,593.5l0.3,13.4l1.7,1.5l-0.7,4.6c0,0-0.2,2.5,1.1,3.5s3.6,2.1,3.6,2.1l2.3,0.5l5.1,1h4.3l10.3-0.6
			l7.8-0.6l6.2-0.8l4-1.3l0.3-7.4l1.2-0.7l0.9-1.1l0.5-1.9l-0.4-12.2l-0.3-1.3l-0.8-1.9l0.3-20.1l0.3-39.4l-3.8,0.4l-10.5,1.2
			l-14.3,0.3l-10.4-0.3l-8.2-0.9l1,59.8"/>
		<polygon class="bot3" points="629.7,420.8 630,288.5 642.5,287.1 667.5,285.4 682.5,285 694,285 711.1,285.2 729,286 746,287.6 
			746.4,290.9 746.8,314.8 747.1,344.3 747,386.3 747,421.1 717,421.9 677,422.4 656,422.6 644.8,422.4 		"/>
		<path class="bot0" d="M687,619.6c12-0.2,23-1.5,23.5-3.5s0-7,0-7s2.3-0.3,2.5-3.3s-0.3-13.3-0.3-13.3l-1-2.3c0,0,0.3-83.8,0.8-86.8
			s6.3-12.5,10.3-16.8s24-29.5,26-46s2.3-289.8,1-293.8s0-12.8-19.8-15s-78.9-6.9-95.8,3.8c0,0-7.8-0.3-7.3,35.3s-0.5,242.5,0,257.3
			s11,37.3,23.3,52.5s14,19,14.5,31.5s1.3,79,1.3,79l-1.3,1.5l0.3,14.3l1.5,1.3c0,0-1.8,5.8,0.5,8S673.8,619.8,687,619.6z"/>
		<path class="bot0" d="M710.5,609.1c-5.5,0.3-11.8,0.5-21.5,0.5s-22.5-1.3-22.5-1.3"/>
		<path class="bot0" d="M711.8,590.3c0,0-11.5,2.8-21.5,2.8s-24.3-1.8-24.3-1.8"/>
		<path class="bot0" d="M665,531.3c0,0,22.3,3.3,46.8-0.8"/>
		<path class="bot0" d="M629.8,421.1l0.3-132.5c0,0,36.8-4.5,58.8-4s55.8,2,57.3,2.8s0.8,133.8,0.8,133.8S642,424.6,629.8,421.1z"/>
	</g>
</g>
</svg>
