<?xml version="1.0" encoding="utf-8"?>
<!-- Generator: Adobe Illustrator 19.0.0, SVG Export Plug-In . SVG Version: 6.00 Build 0)  -->
<svg version="1.1" id="transition" xmlns="http://www.w3.org/2000/svg" xmlns:xlink="http://www.w3.org/1999/xlink" x="0px" y="0px"
	 viewBox="0 0 453.2 181.5" style="top: 50%; transform: translateY(-50%) translateX(-260vw); max-width: none; max-height: none; width: 260vw; enable-background:new 0 0 453.2 181.5;" xml:space="preserve">
<style type="text/css">
	.car0{fill:#282829;}
	.car1{fill:#BCD7D0;}
	.car2{fill:#FFFFFF;}
	.car3{fill:none;stroke:#000000;stroke-miterlimit:10;}
	.car4{fill:#E6E7E8;stroke:#000000;stroke-miterlimit:10;}
	.car5{fill:#414042;stroke:#000000;stroke-miterlimit:10;}
	.car6{fill:#E6E7E8;}
	.car7{fill:#ED228D;}
	.car8{fill:#F15822;stroke:#000000;stroke-miterlimit:10;}
	.car9{fill:#F1F2F2;stroke:#000000;stroke-width:0.5;stroke-miterlimit:10;}
	.car10{fill:#58595B;stroke:#000000;stroke-miterlimit:10;}
</style>
<g id="car">
	<polygon id="XMLID_19_" class="car0" points="54.6,148.4 131.6,150.2 328.9,147.2 405.6,144.6 425.8,144.2 412.8,105.9 389.8,90.2 
		319.1,97.9 247.8,105.4 94.6,96.9 51.8,103.2 41.8,113.2 	"/>
	<path id="XMLID_22_" class="car1" d="M14.6,119.7c0.4,7.8,3.8,18.3,3.8,18.3s6.3,1,7.8,4s2.8,4.5,2.8,4.5s24.3,2.3,25.8,2
		s2.5-1.5,2.5-1.5s-9.7-45.7,34.2-45.5c43.8,0.2,38.3,48.8,38.3,48.8l122.5-0.8c0,0,75.3-1,76.8-2.2c1.5-1.2-3.3-50.3,38.5-51.2
		c41.8-0.8,37.5,48,38.2,48.5c0.7,0.5,19.8,0.8,27-1.5c7.2-2.3,8.5-2.2,9.3-5.7c0.8-3.5,0-3.5-0.2-5s3-12.8,1.5-18.3
		s-6.7-13.2-7-14.7s-8.2-16.3-26.2-22.2s-37.8-10.1-56-11.1c0,0-52.3-32-115.5-44.3c-33.7-6.5-76-6.7-122,6.3s-85,24.7-93,24.3
		c0,0-2.3,0.8-0.6,1.3s4.1,0.8,4.8,2s1.4,7.3,1.1,10.6c-0.3,3.4-3.3,10.1-3.3,13.9s-2.1,13.4-1,14.8s-10,13.9-10,15.5
		S14.5,117.3,14.6,119.7z"/>
	<polygon id="XMLID_23_" class="car2" points="426.3,86.3 423.3,86 396.7,80.5 383.3,78.8 383.5,79.8 402.2,90.8 411.3,95.9 
		415.3,98.5 418.6,99.9 422,100.7 427.6,101 432.8,100.4 434.8,99.9 436.1,98.7 432,92.4 	"/>
	<path id="XMLID_4_" class="car3" d="M14.6,119.7c0.4,7.8,3.8,18.3,3.8,18.3s6.3,1,7.8,4s2.8,4.5,2.8,4.5s24.3,2.3,25.8,2
		s2.5-1.5,2.5-1.5s-9.7-45.7,34.2-45.5c43.8,0.2,38.3,48.8,38.3,48.8l122.5-0.8c0,0,75.3-1,76.8-2.2c1.5-1.2-3.3-50.3,38.5-51.2
		c41.8-0.8,37.5,48,38.2,48.5c0.7,0.5,19.8,0.8,27-1.5c7.2-2.3,8.5-2.2,9.3-5.7c0.8-3.5,0-3.5-0.2-5s3-12.8,1.5-18.3
		s-6.7-13.2-7-14.7s-8.2-16.3-26.2-22.2s-37.8-10.1-56-11.1c0,0-52.3-32-115.5-44.3c-33.7-6.5-76-6.7-122,6.3s-85,24.7-93,24.3
		c0,0-2.3,0.8-0.6,1.3s4.1,0.8,4.8,2s1.4,7.3,1.1,10.6c-0.3,3.4-3.3,10.1-3.3,13.9s-2.1,13.4-1,14.8s-10,13.9-10,15.5
		S14.5,117.3,14.6,119.7z"/>
	<circle id="XMLID_8_" class="car4" cx="65.2" cy="78.9" r="8.7"/>
	<path id="XMLID_9_" class="car5" d="M98.8,58.4c5.5,4.5,239.1,13,249,12.7c9.8-0.3-10.3-8.7-33.3-19.7s-77.5-29.8-116-28.3
		s-91.2,8-110.2,20.5C88.3,43.7,84.3,46.4,98.8,58.4z"/>
	<path id="XMLID_13_" class="car4" d="M105.1,55.4c4.8,0.2,11.8-12.5,10.3-14.5s-20.8,2.5-21.3,5.5S97.8,55.2,105.1,55.4z"/>
	<path id="XMLID_14_" class="car3" d="M112.1,60.4c0,0-7.5,8.7-5.3,17s23.5,37,26.7,45.8s2,13.8,9.8,15.8s125,2.5,135.8,1.8
		s40.5,2.5,41-2.5s4.5-24.5,4.5-32.5s-2-12.8-1.8-15s1.3-6.3,1-8.3s-3.6-11.6-3.6-11.6"/>
	<path id="XMLID_12_" class="car3" d="M207.8,140.2c0,0,4-18.3,4.5-27.5s-0.8-25-1.3-27.8s0.8-9.3,0.8-10.5s-2.8-7.8-2.8-7.8l-8-43.8
		"/>
	<path id="XMLID_15_" class="car4" d="M136.7,79.7h-19.3c-1.2,0-2.1-1-2.1-2.1v0c0-1.2,1-2.1,2.1-2.1h19.3c1.2,0,2.1,1,2.1,2.1v0
		C138.8,78.7,137.9,79.7,136.7,79.7z"/>
	<path id="XMLID_17_" class="car6" d="M194.6,26.4c2,0,4.8,35.5,4.8,35.5l-82.2-3.3c0,0,14.7-25.3,15.7-25.5S173.3,25.9,194.6,26.4z"
		/>
	<path id="XMLID_18_" class="car6" d="M207.8,26.7l8.5,36c0,0,77.4,4.4,78.7,3.7s4.6-4.7,4.6-6.9s-2.8-12.3-2.8-12.3
		S241.3,25.2,207.8,26.7z"/>
	<path id="XMLID_60_" class="car6" d="M207.8,26.7l8.5,36c0,0,77.4,4.4,78.7,3.7s4.6-4.7,4.6-6.9s-2.8-12.3-2.8-12.3
		S241.3,25.2,207.8,26.7z"/>
	<polygon id="XMLID_51_" class="car2" points="214.5,53.7 218.2,61.8 221.6,63.2 229.8,63.5 236.1,55.8 231.2,47.3 225.3,46.5 	"/>
	<path id="XMLID_20_" class="car2" d="M291.7,66.1L277.5,66l-26.6-33.1c8,0.9,16.6,4.2,19.2,4.9L291.7,66.1z"/>
	<path id="XMLID_69_" class="car7" d="M216.3,62.7l3.8,0.2c-1.7-1.3-3.5-6.1-4.6-7.2l2.3-1.2c0,0,3.7,6.8,4.3,7
		c0.7,0.3,1.1,0.4,1.1,0.4s-0.3,0.7-1,1.1l2,0.1l-0.7-1.2c0,0,2.3,0,2.1-1.6c0,0-0.5,1-1.8,1.2c-1.3,0.2-2-0.8-2.7-2
		c-0.7-1.2-1.7-3-1.7-3l2.3-1.3l1.8,3.2c0.4,0.7,0.9,0.3,0.6-0.3l-1.8-3.2l2.2-1.3c0,0,3.8,5.5,3.5,6.9c-0.2,1-0.1,2-1.5,2.9
		l9.6,0.5l1.4-0.8c1.7-1,2.3-3.1,1.3-4.8l-7.8-13.5c-1-1.7-3.1-2.3-4.8-1.3l-12.8,7.3L216.3,62.7z M226.5,49.2
		c2.5-1.5,4.5,0.6,4.5,0.6l0.7-0.4l1.3,2.3l-0.7,0.4c0.1,0.2,0.6,0.8,0.8,1c0.2,0.2,0.8-0.1,0.8-0.1l1.3,2.2c-1.8,1-3.8-0.2-4.3-0.7
		c-0.5-0.5-1.7-2.7-1.9-3c-0.2-0.3-0.7-0.4-1-0.1c-0.4,0.2-0.6,0.7-0.4,0.9c0.2,0.3,0.5,0.9,0.5,0.9l1.1-0.6l1.3,2.2l-1.1,0.7
		c1.3,2.4-1,3.6-1,3.6s-3.2-5.6-3.3-5.8C225,53.3,224,50.7,226.5,49.2z"/>
	<path id="XMLID_16_" class="car4" d="M237,86.2h-20c-1.2,0-2.1-1-2.1-2.1v0c0-1.2,1-2.1,2.1-2.1h20c1.2,0,2.1,1,2.1,2.1v0
		C239.1,85.2,238.1,86.2,237,86.2z"/>
	<path id="XMLID_10_" class="car3" d="M194.6,26.4c2,0,4.8,35.5,4.8,35.5l-82.2-3.3c0,0,14.7-25.3,15.7-25.5S173.3,25.9,194.6,26.4z"
		/>
	<path id="XMLID_11_" class="car3" d="M207.8,26.7l8.5,36c0,0,78,4.2,79.3,3.5s4-4.5,4-6.7s-2.8-12.3-2.8-12.3S241.3,25.2,207.8,26.7
		z"/>
	<path id="XMLID_27_" class="car8" d="M403.1,84.2c-2.4,0-4.4,1.8-4.8,4.1l1.8,1.1l6.1,3.4c1-0.9,1.7-2.2,1.7-3.7
		C408,86.3,405.8,84.2,403.1,84.2z"/>
	<path id="XMLID_21_" class="car3" d="M436.2,99.4c0,0-12.8,4.5-22.5-1.8c-11-7.2-35.7-19.2-29.7-18.7s37.3,5.9,42.3,7.4"/>
	<path id="XMLID_49_" class="car9" d="M69.2,80.4h-8c-1,0-1.9-0.8-1.9-1.9v0c0-1,0.8-1.9,1.9-1.9h8c1,0,1.9,0.8,1.9,1.9v0
		C71.1,79.6,70.2,80.4,69.2,80.4z"/>
	<path id="XMLID_62_" class="car5" d="M268.2,63.7"/>
</g>
<g id="rightwheel" class="rotate">
	<circle id="XMLID_5_" class="car10" cx="367.2" cy="132.7" r="31"/>
	<circle id="XMLID_7_" class="car4" cx="367.9" cy="133.2" r="21.4"/>
	<g id="XMLID_26_">
		<circle id="XMLID_24_" class="car9" cx="364.5" cy="132.4" r="1"/>
		
			<ellipse id="XMLID_25_" transform="matrix(0.309 -0.9511 0.9511 0.309 123.1153 429.4803)" class="car9" cx="357.1" cy="130" rx="1.2" ry="5.2"/>
		
			<ellipse id="XMLID_31_" transform="matrix(0.309 -0.9511 0.9511 0.309 131.1774 454.293)" class="car9" cx="378.2" cy="136.9" rx="1.2" ry="5.2"/>
		<circle id="XMLID_43_" class="car9" cx="365.7" cy="136.1" r="1"/>
		
			<ellipse id="XMLID_41_" transform="matrix(-0.809 -0.5878 0.5878 -0.809 569.6201 469.9201)" class="car9" cx="361.2" cy="142.4" rx="1.2" ry="5.2"/>
		
			<ellipse id="XMLID_37_" transform="matrix(-0.809 -0.5878 0.5878 -0.809 603.7719 445.1075)" class="car9" cx="374.2" cy="124.5" rx="1.2" ry="5.2"/>
		<circle id="XMLID_52_" class="car9" cx="369.6" cy="136.1" r="1"/>
		
			<ellipse id="XMLID_50_" transform="matrix(-0.809 0.5878 -0.5878 -0.809 760.6428 37.6915)" class="car9" cx="374.2" cy="142.4" rx="1.2" ry="5.2"/>
		
			<ellipse id="XMLID_46_" transform="matrix(-0.809 0.5878 -0.5878 -0.809 726.491 12.8788)" class="car9" cx="361.2" cy="124.5" rx="1.2" ry="5.2"/>
		<circle id="XMLID_61_" class="car9" cx="370.9" cy="132.4" r="1"/>
		
			<ellipse id="XMLID_59_" transform="matrix(0.309 0.9511 -0.9511 0.309 384.9999 -269.8802)" class="car9" cx="378.2" cy="130" rx="1.2" ry="5.2"/>
		
			<ellipse id="XMLID_55_" transform="matrix(0.309 0.9511 -0.9511 0.309 376.9377 -245.0675)" class="car9" cx="357.1" cy="136.9" rx="1.2" ry="5.2"/>
		<circle id="XMLID_70_" class="car9" cx="367.7" cy="130.1" r="1"/>
		<ellipse id="XMLID_68_" class="car9" cx="367.7" cy="122.3" rx="1.2" ry="5.2"/>
		<ellipse id="XMLID_64_" class="car9" cx="367.7" cy="144.5" rx="1.2" ry="5.2"/>
	</g>
</g>
<g id="leftwheel" class="rotate">
	<circle id="XMLID_3_" class="car10" cx="92.4" cy="139.6" r="32.5"/>
	<circle id="XMLID_6_" class="car4" cx="92.8" cy="140" r="21"/>
	<g id="XMLID_28_">
		<circle id="XMLID_48_" class="car9" cx="89.7" cy="139" r="1"/>
		
			<ellipse id="XMLID_47_" transform="matrix(0.309 -0.9511 0.9511 0.309 -73.0376 172.6262)" class="car9" cx="82.3" cy="136.6" rx="1.2" ry="5.2"/>
		
			<ellipse id="XMLID_45_" transform="matrix(0.309 -0.9511 0.9511 0.309 -64.9754 197.4389)" class="car9" cx="103.4" cy="143.4" rx="1.2" ry="5.2"/>
		<circle id="XMLID_44_" class="car9" cx="90.9" cy="142.7" r="1"/>
		
			<ellipse id="XMLID_42_" transform="matrix(-0.809 -0.5878 0.5878 -0.809 68.5699 320.2462)" class="car9" cx="86.3" cy="149" rx="1.2" ry="5.2"/>
		
			<ellipse id="XMLID_40_" transform="matrix(-0.809 -0.5878 0.5878 -0.809 102.7216 295.4335)" class="car9" cx="99.4" cy="131" rx="1.2" ry="5.2"/>
		<circle id="XMLID_39_" class="car9" cx="94.8" cy="142.7" r="1"/>
		
			<ellipse id="XMLID_38_" transform="matrix(-0.809 0.5878 -0.5878 -0.809 267.3085 211.1127)" class="car9" cx="99.4" cy="149" rx="1.2" ry="5.2"/>
		
			<ellipse id="XMLID_36_" transform="matrix(-0.809 0.5878 -0.5878 -0.809 233.1567 186.3)" class="car9" cx="86.3" cy="131" rx="1.2" ry="5.2"/>
		<circle id="XMLID_35_" class="car9" cx="96" cy="139" r="1"/>
		
			<ellipse id="XMLID_34_" transform="matrix(0.309 0.9511 -0.9511 0.309 201.3317 -3.9555)" class="car9" cx="103.4" cy="136.6" rx="1.2" ry="5.2"/>
		
			<ellipse id="XMLID_33_" transform="matrix(0.309 0.9511 -0.9511 0.309 193.2695 20.8572)" class="car9" cx="82.3" cy="143.4" rx="1.2" ry="5.2"/>
		<circle id="XMLID_32_" class="car9" cx="92.8" cy="136.7" r="1"/>
		<ellipse id="XMLID_30_" class="car9" cx="92.8" cy="128.9" rx="1.2" ry="5.2"/>
		<ellipse id="XMLID_29_" class="car9" cx="92.8" cy="151.1" rx="1.2" ry="5.2"/>
	</g>
</g>
</svg>
