<?xml version="1.0" encoding="utf-8"?>
<!-- Generator: Adobe Illustrator 19.0.0, SVG Export Plug-In . SVG Version: 6.00 Build 0)  -->
<svg version="1.1" id="transition" xmlns="http://www.w3.org/2000/svg" xmlns:xlink="http://www.w3.org/1999/xlink" x="0px" y="0px"
	 viewBox="0 0 149.5 148.7" style="top: 50%; left: 50%; transform: translate(-50%, -50%); width: 0vw; transition: all .5s; enable-background:new 0 0 149.5 148.7;" xml:space="preserve">
<style type="text/css">
	.cof0{clip-path:url(#XMLID_111_);fill:#361910;}
	.cof1{fill:none;stroke:#E6E7E8;stroke-width:5;stroke-miterlimit:10;}
	.cof2{fill:#FFFFFF;}
	.cof3{fill:none;stroke:#FFFFFF;stroke-width:3;stroke-miterlimit:10;}
</style>
<g id="Layer_2">
	<g id="XMLID_15_">
		<defs>
			<circle id="XMLID_13_" cx="75.3" cy="74.7" r="71.3"/>
		</defs>
		<clipPath id="XMLID_111_">
			<use xlink:href="#XMLID_13_"  style="overflow:visible;"/>
		</clipPath>
		<rect id="XMLID_2_" x="-115.7" y="-86.7" class="cof0" width="337.5" height="337.5"/>
	</g>
	<circle id="XMLID_3_" class="cof1" cx="75.3" cy="74.7" r="71.3"/>
	<path id="XMLID_17_" class="cof2" d="M129.5,77.3c0,0-0.1,0.9-0.3,2.7c0,0.4-0.1,0.9-0.1,1.4c0,0.3-0.1,0.5-0.1,0.8
		c-0.1,0.3-0.1,0.6-0.2,0.9c-0.3,1.2-0.5,2.7-0.9,4.3c-0.2,0.8-0.5,1.6-0.7,2.5c-0.3,0.9-0.5,1.8-0.9,2.7c-0.8,1.8-1.5,3.8-2.6,5.8
		c-1,2.1-2.4,4.1-3.8,6.2c-0.8,1-1.6,2-2.4,3.1c-0.4,0.5-0.9,1-1.4,1.5c-0.5,0.5-1,1-1.4,1.5c-4,4-9,7.7-14.8,10.5
		c-5.9,2.8-12.6,4.6-19.8,4.9l-1.3,0.1l-0.7,0l-0.2,0c0,0-0.1,0-0.2,0l-0.1,0l-0.3,0c-0.9,0-1.8-0.1-2.6-0.1c-0.9-0.1-1.8,0-2.7-0.2
		c-0.9-0.1-1.8-0.3-2.8-0.4c-0.9-0.2-1.9-0.2-2.8-0.5c-0.9-0.2-1.8-0.4-2.7-0.7c-1.8-0.4-3.6-1.1-5.3-1.7c-7-2.7-13.6-6.9-18.8-12.4
		c-5.3-5.5-9.4-12.1-11.9-19.2c-2.6-7-3.4-14.6-2.9-21.6c0-1.7,0.4-3.5,0.6-5.3c0.2-1.8,0.8-3.4,1.2-5.1c0.9-3.3,2.2-6.4,3.6-9.3
		c2.9-5.8,6.8-10.7,10.9-14.6c1-1,2-1.9,3.1-2.7c1.1-0.8,2.1-1.7,3.2-2.4c1.1-0.7,2.2-1.3,3.2-2c1-0.6,2.1-1.1,3.1-1.6
		c1-0.5,2-1,3-1.4c1-0.4,1.9-0.8,2.9-1.1c1.9-0.6,3.6-1.1,5.2-1.5c1.6-0.3,3-0.6,4.3-0.8c0.6-0.1,1.2-0.2,1.7-0.2
		c0.5,0,1-0.1,1.5-0.1c1.7-0.1,2.7-0.2,2.7-0.2s-0.9,0.1-2.6,0.4c-0.4,0.1-0.9,0.1-1.4,0.2c-0.5,0.1-1.1,0.1-1.7,0.3
		c-1.2,0.3-2.6,0.6-4.2,1c-1.5,0.5-3.2,1-5,1.7c-0.9,0.4-1.8,0.8-2.8,1.2c-1,0.4-1.9,0.9-2.9,1.5c-4,2.1-8.1,5.1-11.9,9
		c-3.9,3.9-7.4,8.7-10.1,14.3c-2.7,5.6-4.4,12-4.8,18.8c-0.4,6.8,0.6,13.8,3,20.5c2.4,6.7,6.3,12.9,11.3,18.1
		c5,5.2,11.2,9.2,17.8,11.8c1.7,0.6,3.3,1.3,5,1.7c0.8,0.2,1.7,0.5,2.5,0.7c0.8,0.3,1.7,0.3,2.5,0.5c0.8,0.1,1.7,0.3,2.5,0.4
		c0.8,0.1,1.8,0.1,2.6,0.2c0.9,0.1,1.8,0.1,2.6,0.2l0.3,0l0.1,0c0,0-0.1,0,0,0l0.2,0l0.6,0l1.3-0.1c6.8-0.2,13.3-1.8,18.9-4.3
		c5.7-2.5,10.6-6,14.6-9.7c0.5-0.5,1-1,1.4-1.4c0.5-0.5,1-0.9,1.4-1.4c0.9-1,1.7-2,2.5-2.9c1.4-2,2.9-3.9,3.9-5.9
		c1.2-1.9,2-3.8,2.8-5.6c0.4-0.9,0.7-1.8,1-2.6c0.3-0.8,0.6-1.6,0.9-2.4c0.4-1.5,0.8-2.9,1.1-4.2c0.1-0.3,0.2-0.6,0.2-0.9
		c0-0.3,0.1-0.6,0.1-0.8c0.1-0.5,0.2-1,0.2-1.4C129.4,78.3,129.5,77.3,129.5,77.3z"/>
	<g id="XMLID_5_">
		<path id="XMLID_25_" class="cof2" d="M120.9,83c0,0-0.2,0.7-0.5,2.1c-0.3,1.4-0.9,3.3-1.8,5.8c-0.3,0.6-0.5,1.2-0.8,1.9
			c-0.1,0.3-0.3,0.7-0.4,1c-0.2,0.3-0.4,0.7-0.5,1c-0.4,0.7-0.8,1.4-1.2,2.2c-0.5,0.7-0.9,1.5-1.4,2.2c-2,3-4.7,6.2-8.2,9.1
			c-3.5,2.9-7.7,5.5-12.6,7.4c-4.9,1.9-10.3,3-16.1,3c-1.4-0.1-2.8-0.1-4.2-0.2c-1.5-0.2-2.9-0.4-4.4-0.6c-1.4-0.4-2.9-0.7-4.3-1.1
			c-1.4-0.5-2.8-1-4.2-1.5c-5.6-2.3-10.7-5.8-15-10.2c-4.3-4.4-7.6-9.6-9.8-15.2c-2.2-5.6-3.1-11.5-3-17.3c0-0.7,0.1-1.4,0.1-2.1
			c0-0.7,0.1-1.4,0.2-2.1c0.1-0.7,0.2-1.4,0.3-2.1c0.1-0.7,0.2-1.4,0.4-2c0.6-2.7,1.4-5.3,2.4-7.7c2-4.8,4.7-9,7.7-12.4
			c2.9-3.4,6.3-6,9.3-8c0.8-0.5,1.5-1,2.3-1.4c0.8-0.4,1.5-0.8,2.2-1.1c0.4-0.2,0.7-0.4,1-0.5c0.3-0.1,0.7-0.3,1-0.4
			c0.7-0.3,1.3-0.5,1.9-0.8c2.5-0.9,4.4-1.4,5.8-1.7c1.4-0.3,2.1-0.4,2.1-0.4s-0.7,0.2-2,0.6c-1.3,0.3-3.2,1.1-5.6,2
			c-0.6,0.3-1.2,0.6-1.8,0.9c-0.3,0.2-0.6,0.3-1,0.5c-0.3,0.2-0.6,0.4-1,0.6c-0.7,0.4-1.4,0.8-2.1,1.2c-0.7,0.4-1.4,1-2.1,1.5
			c-2.9,2.1-5.9,4.8-8.6,8.2c-2.7,3.4-5.2,7.5-6.9,12.1c-0.9,2.3-1.6,4.8-2,7.3c-0.2,0.6-0.2,1.3-0.3,1.9c-0.1,0.6-0.2,1.3-0.2,1.9
			c-0.1,0.6-0.1,1.3-0.1,2c0,0.7,0,1.4-0.1,2.1l0,0.5l0,0.4l0.1,1c0,0.7,0.1,1.4,0.1,2c0,0.7,0.1,1.4,0.2,2c0.1,0.7,0.2,1.4,0.3,2
			c0.5,2.7,1.3,5.4,2.3,8c2.1,5.2,5.2,10.1,9.2,14.2c4,4.1,8.8,7.4,14,9.6c1.3,0.5,2.6,1,3.9,1.4c1.3,0.4,2.7,0.7,4,1.1
			c1.3,0.2,2.7,0.4,4,0.7c1.4,0.1,2.8,0.2,4.2,0.3l0.3,0l0.1,0c0,0-0.1,0,0,0l0.1,0l0.5,0l1,0c0.7,0,1.3,0,2-0.1
			c1.3-0.2,2.6-0.3,3.9-0.4c1.3-0.3,2.5-0.5,3.8-0.8c1.2-0.4,2.4-0.7,3.6-1.1c4.7-1.7,8.8-4,12.3-6.6c3.4-2.7,6.2-5.6,8.3-8.4
			c0.5-0.7,1-1.4,1.5-2.1c0.4-0.7,0.9-1.4,1.3-2.1c0.2-0.3,0.4-0.7,0.6-1c0.2-0.3,0.3-0.7,0.5-1c0.3-0.6,0.6-1.2,0.9-1.8
			c1-2.3,1.8-4.2,2.2-5.6C120.7,83.7,120.9,83,120.9,83z"/>
	</g>
	<g id="XMLID_6_">
		<path id="XMLID_23_" class="cof2" d="M110.6,92.1c0,0-0.3,0.5-0.8,1.4c-0.2,0.5-0.6,1-1,1.7c-0.2,0.3-0.4,0.7-0.7,1
			c-0.2,0.4-0.5,0.7-0.8,1.1c-1.2,1.6-2.7,3.4-4.8,5.2c-2,1.8-4.6,3.7-7.6,5.3c-3,1.6-6.5,2.9-10.4,3.7c-0.5,0.1-1,0.2-1.5,0.3
			c-0.5,0.1-1,0.1-1.5,0.2c-1,0.2-2,0.2-3.1,0.2c-0.3,0-0.5,0-0.8,0l-0.8,0c-0.5,0-1,0-1.5-0.1c-0.5,0-1,0-1.5-0.1
			c-0.5-0.1-1.1-0.1-1.6-0.2c-2.2-0.2-4.3-0.8-6.5-1.4c-1.1-0.4-2.1-0.7-3.2-1.1c-1-0.5-2-1-3.1-1.5c-4-2.1-7.7-5-10.8-8.4
			c-3.1-3.4-5.5-7.4-7.2-11.7c-1.7-4.2-2.5-8.7-2.6-13c0-0.6,0-1.1-0.1-1.7c0-0.5,0.1-1,0.1-1.5c0-0.5,0-1,0.1-1.5
			c0.1-0.5,0.1-1.1,0.2-1.6c0.3-2.1,0.7-4,1.3-5.9c1.1-3.8,2.8-7.1,4.7-10c1.9-2.8,4-5.2,6.1-7c1-0.9,2-1.7,3-2.4
			c0.9-0.7,1.9-1.3,2.7-1.8c0.8-0.5,1.6-0.9,2.3-1.3c0.7-0.4,1.3-0.6,1.8-0.8c1-0.4,1.5-0.6,1.5-0.6s-0.5,0.3-1.4,0.8
			c-0.9,0.5-2.2,1.3-3.8,2.4c-0.8,0.6-1.6,1.2-2.5,2c-0.9,0.7-1.8,1.6-2.7,2.6c-1.8,1.9-3.7,4.3-5.4,7.1c-1.7,2.8-3.1,6.1-4,9.7
			c-0.5,1.8-0.8,3.7-1,5.6c0,0.5-0.1,1-0.1,1.4c0,0.5,0,1-0.1,1.5c0,0.5,0,1,0,1.5c0,0.5,0.1,1,0.1,1.5c0,2,0.4,4,0.8,6.1
			c0.3,1,0.5,2,0.8,3c0.3,1,0.7,2,1.1,3c1.6,3.9,3.9,7.6,6.8,10.7c2.8,3.2,6.3,5.9,10,7.9c3.7,2,7.8,3.3,11.7,3.9
			c0.5,0.1,1,0.2,1.5,0.2c0.5,0,1,0.1,1.5,0.1c0.5,0,1,0.1,1.5,0.1l0.8,0.1c0.1,0,0.5,0,0.7,0c1,0,1.9,0,2.9-0.1
			c0.5,0,0.9-0.1,1.4-0.1c0.5-0.1,0.9-0.1,1.4-0.2c3.7-0.6,7.1-1.6,10-3c3-1.4,5.5-3,7.6-4.7c2.1-1.7,3.8-3.3,5.1-4.7
			c0.7-0.7,1.2-1.4,1.7-2c0.5-0.6,0.9-1.1,1.2-1.5C110.2,92.5,110.6,92.1,110.6,92.1z"/>
	</g>
	<path id="XMLID_7_" class="cof3" d="M117.2,67.5"/>
	<path id="XMLID_8_" class="cof2" d="M101.7,41.2c4.2,2.4,4.8,6.1-3.7,12.1s-16.8,17-18,18S86,61.1,87,51.1
		C87.8,43.5,96.2,38.1,101.7,41.2z"/>
	<path id="XMLID_10_" class="cof2" d="M100.3,51.2c0,0,7.2-5.4,10.7-3.4c4.3,2.5,7.2,10.6-4,16.2s-17-1.4-27.1,7.2
		C79.9,71.2,94.3,51.5,100.3,51.2z"/>
	<path id="XMLID_11_" class="cof2" d="M81.7,40c0,0-1.3,7.3-1.5,11.8c-0.4,10.5-1.1,13.1-4.2,16.8c-3.1,3.8-5.9,7.7-5.9,7.7
		s13.7-3.6,20.3-3.5c19.3,0.2,17.2-3.3,20.6-2.9c0,0-4.6,6.1-14.2,7.6c-8.8,1.4-18.6-0.8-23-0.2c-4.9,0.7-8.9,2.8-8.9,2.8
		s3.8-3.7,6-9.7c0.7-2,2-6,2.5-15.7C73.5,50.6,81.7,40,81.7,40z"/>
	<path id="XMLID_12_" class="cof2" d="M58.6,86c0,0,3.1-11.6,3.6-17.8c0.5-6.2,1.8-14.9,9.3-20.5c0,0-3.8,8.2-3.3,14.2
		c0.9,10.8-4.2,8.9-6.7,20.4c-0.5,2.4-1.8,2.3,0.5,1.4c2.6-1,14.7-5.1,29.7-2.1c10.4,2.1,13.7-2,16.2-3.5c0,0-5.2,8.1-13.6,9.5
		s-18-5.3-26.9-3.5C58.6,86,58.6,86,58.6,86z"/>
	<path id="XMLID_9_" class="cof2" d="M54.7,87.7c0,0,1.5-3.8,0.3-7.7c-1.1-3.8-2.8-13-1.5-17.3c1.3-4.3,7.9-13.8,13.8-18.5
		c0,0-7.2,14.1-8.8,21.1C55,80.1,60.4,78.2,54.7,87.7z"/>
	<path id="XMLID_14_" class="cof2" d="M54.7,87.7c0,0,4,3.8,8.7,4.7s13.6,6.1,17,5.4s15.1-1.1,21.5-7.7c0,0-9.2,2.5-19,2
		S69.1,88.9,62,89.5C56.1,90,54.7,87.7,54.7,87.7z"/>
</g>
</svg>
