
<svg version="1.1" xmlns="http://www.w3.org/2000/svg" id="scene" xmlns:xlink="http://www.w3.org/1999/xlink" x="0px" y="0px"
	 viewBox="0 0 2260 1080" style="enable-background:new 0 0 2260 1080;" xml:space="preserve">
<style type="text/css">
	.st0{fill:#898059;}
	.st1{fill:#479FA5;}
	.st2{opacity:0.3;fill:#193738;}
	.st3{fill:#99304E;}
	.st4{fill:#66E2E2;}
	.st5{fill:#38388E;}
	.st6{fill:#56BDCA;}
	.st7{fill:none;stroke:#4946B9;stroke-width:7;stroke-miterlimit:10;}
	.st8{fill:#4946B9;}
	.st9{fill:#343484;}
	.st10{fill:#FFECC5;}
	.st11{fill:#F4E49F;}
	.st12{fill:#4BA8AA;}
	.st13{fill:#3F8D93;}
	.st14{fill:none;stroke:#56BDCA;stroke-width:5;stroke-miterlimit:10;}
	.st15{font-family:'Futura-Medium';}
	.st16{font-size:35.0636px;}
	.st17{fill:#232356;}
	.st18{fill:#FEECA3;}
	.st19{fill:#E94365;}
	.st20{fill:#632035;}
	.st21{fill:#E5DCB5;}
	.st22{fill:#FCF1C3;}
	.st23{fill:#FFECC5;stroke:#99304E;stroke-width:7;stroke-miterlimit:10;}
	.st24{fill:none;stroke:#99304E;stroke-width:8;stroke-miterlimit:10;}
	.st25{fill:#FFEEA6;}
	.st26{font-size:41.0535px;}
	.st27{fill:none;stroke:#343484;stroke-width:7;stroke-miterlimit:10;}
	.st28{fill:#F2F2F2;}
	.st29{font-size:34.9509px;}
	.st30{fill:none;}
	.st31{font-size:38.6324px;}
	.st32{fill:none;stroke:#632035;stroke-width:7;stroke-miterlimit:10;}
	.st33{fill:#FFFFFF;}
	.st34{font-size:37.3381px;}
	.st35{font-family:'MyriadPro-Regular';}
	.st36{font-size:12.6733px;}
	.st37{fill:#F7C179;}
	.st38{fill:#F9BA67;}
	.st39{fill:#3A8284;}
	.st40{fill:#231A46;}
	.st41{fill:#2C2C6B;}
	.st42{fill:none;stroke:#DBB783;stroke-miterlimit:10;}
	.st43{fill:#171230;}
	.st44{fill:#0F0F26;}
</style>
<g id="trees">
	<g>
		<g>
			<path class="st0" d="M105.9,903.3l-51.4-5c3.2-115,13.9-236.9,40.2-373.5l34.1,3.3C96.6,664.5,95.2,798.3,105.9,903.3z"/>
			<path class="st1" d="M117,524.6c6.6-10.9,18.1-17.4,30-19.3c11.8-1.9,23.9,0.6,35.2,4.9c18.9,7.2,36.5,20.1,47.1,38.6
				c10.6,18.6,13.1,43.2,3.7,62.5l-0.6,0.5c4.3-13.5,2.8-29.1-4-41.3c-0.2,7.1-0.4,12.5-0.6,19.5c-7.4-5.1-15.1-10.5-22.5-15.6
				c3-8.8,2.5-18.9-1-27.6c-0.9,6.9-1.7,13.8-2.6,20.7c-1.5-12.1-3-24.2-4.5-36.2c-3.4,10.3-10.4,18.4-18.4,25
				c-9.6-2.6-18.6-8.6-25.2-16.7c0.4-5.7,1.3-11.4,1.7-17.1c-0.9,7.7-5.1,14.9-9.8,20.7c-8.8-0.4-17.4-1.5-26.2-1.9
				c15.1,5.2,29.9,11.2,43.5,20c9.9,6.5,19.5,14.1,26.4,24.2c6.9,10.1,11,23.1,8.9,35.5c-2.9,17.4-15,31.3-27.6,42.4
				c-2.6-5.3-5-10.3-7.6-15.6c6.3-6.9,11.5-14.9,16-23.2c-8.4,0.3-16.4,2.2-23.7,6.7c3.7-9,6-18.6,7.5-28.3
				c-4.8,2.6-9.8,5.5-13.9,9.2c-2.8-10.6-8.8-20.2-17.1-26.6c0.2,0.1,0.3,0.3,0.5,0.4c1.3-5,1.8-10.2,1.5-15.4
				c-2.8,3.1-2.1,2.4-5,5.4c-1,1.1-3.8,0.2-5.2,0.3c4.9,4.4,6.3,15.4,7.7,22.1c1.4,6.7,1.2,13.7,0.8,20.6
				c-0.9,14.3-2.9,28.7-7.6,42.2c-4.6,13.5-11.9,26-22.1,35.2c2.5-8.9-1-19-0.9-28.3c0-8.1,2.4-16.2,6.8-22.7
				c-3.9,0.4-8.3,1.1-11.7,3.3c2.2-13.5,4.4-27.1,6.7-40.6c-1.7,0.1-3.6,0.1-5.3,0.2c2.4-11,4.9-22.1,7.3-33.1
				c-2.4,4.4-4.9,9-7.2,13.4c1.7-8.4,1.3-17.4-0.3-25.9c-3.4,3.6-6.8,7.3-10.3,10.9c0.4-3.6,0.8-7.1,1.2-10.7
				C80.2,575,71,586,60.4,595.6c2.7-6.6,4.4-13.1,7.1-19.7c-9.8,11.6-16.8,25.9-20.6,41.1c0.2-7.1-0.1-14.4,0.1-21.5
				c-7.6,11.9-11.7,26.1-12,40.6c-3.9-6.1-6.4-13.4-7-20.8c-0.8,9.2-2,18.4-4.9,27.1c-2.9,8.7-8.1,16.8-15.7,20.9
				c-4.3-21.3-1.8-44.1,5.5-64.4c7.3-20.3,20.2-38.2,36.7-50.6c5.4-4.1,11.3-7.7,17.7-9.6c6.4-1.9,12.8-4.1,20.1-2.6
				c-2.3-5.7-8.4-8.8-14-10c-17.2-3.9-36.1,1.6-49.1,14.5c3.8-10.2,9-20,16.5-27.4c-8,3.3-14.2,10.2-19.3,17.7
				c-5.1,7.5-9.2,15.7-14.5,23c-5.3,7.3-12.1,13.8-20.3,16.2c1.6-8.8,3-18.6,4.7-27.4c-10.8,11.3-21.6,22.8-32.1,34.4
				c1.5-23.7,9.8-47.2,23.8-65.4c10.9-14.1,25.4-25.5,41.9-29.1c12.4-2.7,25.6-1,37,4.9c11.4,5.9,21.1,15.9,27,28.1
				c0.1-12.9-2.1-26.1-8-37.3c5.7,1.1,11.1,2.4,16.8,3.6c-0.4-0.1-0.9-0.2-1.3-0.3c-1.4-5.8-5.6-10.7-9.1-15.4
				c-3.4-4.7-7.2-9.2-9.7-14.5c-2.5-5.3-3.7-11.8-1.7-17.3c3.7,0.5,7.2,2.4,9.9,5.3c-0.4-0.2-0.8-0.4-1.3-0.5
				c-1.3-5.9-3.7-10.5-8-14.3c-4.3-3.8-9.3-6.6-14.3-9.3c7-0.3,13.8,0.4,20.7,1.3c6.9,0.9,13.9,3.1,19.6,7.4
				c6.9,5.2,11.7,13.1,14.6,21.7c2.9,8.6,3.9,17.7,4.3,26.8c0.7,17.1-0.8,34.2-4.4,50.8"/>
			<path class="st2" d="M109.5,514.3c-1.2-7.4-2.5-14.7-3.7-22.1c7.1,12.7,9.1,28.8,5.2,43.3c8.7-5.7,17.4-11.4,26-17.2
				c-1.3,2.6-2.6,5.1-3.8,7.7c3.9-1.4,7.8-2.9,11.7-4.3c-3.2,4.8-8.3,8-13.7,8.6c-3.1,0.3-6.2-0.2-9.2,0.6c-3,0.7-6,3.3-6,6.7
				c13.5,3.5,26,10.9,36,21.2c-2.7-0.2-5.6,0.8-7.7,2.8c-3.4-7.2-10.2-12.3-17.6-13.2c-1.2-0.2-2.5-0.2-3.7-0.5
				c-3.5-0.9-6.4-4.4-6.7-8.4c4.5,16.1,7.2,33,7.8,49.9c-2.6-1.4-5.1-2.7-7.7-4.1c0.6-6,1.2-12,1.8-18.1c-0.5,1.3-2.3,1.3-3.1,0.4
				c-0.9-1-1.1-2.4-1.2-3.8c-0.7-7-1.4-14-2.1-21c-10,1.4-19.5,7.2-25.8,15.9c0.1-1.8,0.3-3.5,0.4-5.3c-3.6,2.5-7.1,4.9-10.7,7.4
				c6.7-12.9,20-21.4,33.5-21.3c-5-7.4-12.5-12.7-20.9-14.6c-8.3-1.8-17.3-0.2-24.8,4.5c2.4-3.9,4.9-7.8,7.3-11.6
				c3.2,0.5,6.3,0.9,9.5,1.4c-5.2-5.6-12.1-9.3-19.4-10.5c16.9,3.6,32.9,11.6,46.4,23c-1.4-7.9-2.7-15.8-4.1-23.7
				C105.3,510.1,107.4,512.2,109.5,514.3z"/>
		</g>
		<g>
			<path class="st0" d="M1990.6,890.5l-46.3,11.1c1.3-147,9.3-305.4,31.1-487.6l30.7-7.3C1979.1,590.7,1979.6,761,1990.6,890.5z"/>
			<path class="st1" d="M1994.7,403.2c6.6-10.9,18.1-17.4,30-19.3c11.8-1.9,23.9,0.6,35.2,4.9c18.9,7.2,36.5,20.1,47.1,38.6
				c10.6,18.6,13.1,43.2,3.7,62.5l-0.6,0.5c4.3-13.5,2.8-29.1-4-41.3c-0.2,7.1-0.4,12.5-0.6,19.5c-7.4-5.1-15.1-10.5-22.5-15.6
				c3-8.8,2.5-18.9-1-27.6c-0.9,6.9-1.7,13.8-2.6,20.7c-1.5-12.1-3-24.2-4.5-36.2c-3.4,10.3-10.4,18.4-18.4,25
				c-9.6-2.6-18.6-8.6-25.2-16.7c0.4-5.7,1.3-11.4,1.7-17.1c-0.9,7.7-5.1,14.9-9.8,20.7c-8.8-0.4-17.4-1.5-26.2-1.9
				c15.1,5.2,29.9,11.2,43.5,20c9.9,6.5,19.5,14.1,26.4,24.2c6.9,10.1,11,23.1,8.9,35.5c-2.9,17.4-15,31.3-27.6,42.4
				c-2.6-5.3-5-10.3-7.6-15.6c6.3-6.9,11.5-14.9,16-23.2c-8.4,0.3-16.4,2.2-23.7,6.7c3.7-9,6-18.6,7.5-28.3
				c-4.8,2.6-9.8,5.5-13.9,9.2c-2.8-10.6-8.8-20.2-17.1-26.6c0.2,0.1,0.3,0.3,0.5,0.4c1.3-5,1.8-10.2,1.5-15.4
				c-2.8,3.1-2.1,2.4-5,5.4c-1,1.1-3.8,0.2-5.2,0.3c4.9,4.4,6.3,15.4,7.7,22.1c1.4,6.7,1.2,13.7,0.8,20.6
				c-0.9,14.3-2.9,28.7-7.6,42.2c-4.6,13.5-11.9,26-22.1,35.2c2.5-8.9-1-19-0.9-28.3c0-8.1,2.4-16.2,6.8-22.7
				c-3.9,0.4-8.3,1.1-11.7,3.3c2.2-13.5,4.4-27.1,6.7-40.6c-1.7,0.1-3.6,0.1-5.3,0.2c2.4-11,4.9-22.1,7.3-33.1
				c-2.4,4.4-4.9,9-7.2,13.4c1.7-8.4,1.3-17.4-0.3-25.9c-3.4,3.6-6.8,7.3-10.3,10.9c0.4-3.6,0.8-7.1,1.2-10.7
				c-8.4,11.9-17.6,23-28.2,32.6c2.7-6.6,4.4-13.1,7.1-19.7c-9.8,11.6-16.8,25.9-20.6,41.1c0.2-7.1-0.1-14.4,0.1-21.5
				c-7.6,11.9-11.7,26.1-12,40.6c-3.9-6.1-6.4-13.4-7-20.8c-0.8,9.2-2,18.4-4.9,27.1c-2.9,8.7-8.1,16.8-15.7,20.9
				c-4.3-21.3-1.8-44.1,5.5-64.4s20.2-38.2,36.7-50.6c5.4-4.1,11.3-7.7,17.7-9.6c6.4-1.9,12.8-4.1,20.1-2.6c-2.3-5.7-8.4-8.8-14-10
				c-17.2-3.9-36.1,1.6-49.1,14.5c3.8-10.2,9-20,16.5-27.4c-8,3.3-14.2,10.2-19.3,17.7c-5.1,7.5-9.2,15.7-14.5,23
				c-5.3,7.3-12.1,13.8-20.3,16.2c1.6-8.8,3-18.6,4.7-27.4c-10.8,11.3-21.6,22.8-32.1,34.4c1.5-23.7,9.8-47.2,23.8-65.4
				c10.9-14.1,25.4-25.5,41.9-29.1c12.4-2.7,25.6-1,37,4.9c11.4,5.9,21.1,15.9,27,28.1c0.1-12.9-2.1-26.1-8-37.3
				c5.7,1.1,11.1,2.4,16.8,3.6c-0.4-0.1-0.9-0.2-1.3-0.3c-1.4-5.8-5.6-10.7-9.1-15.4c-3.4-4.7-7.2-9.2-9.7-14.5
				c-2.5-5.3-3.7-11.8-1.7-17.3c3.7,0.5,7.2,2.4,9.9,5.3c-0.4-0.2-0.8-0.4-1.3-0.5c-1.3-5.9-3.7-10.5-8-14.3s-9.3-6.6-14.3-9.3
				c7-0.3,13.8,0.4,20.7,1.3c6.9,0.9,13.9,3.1,19.6,7.4c6.9,5.2,11.7,13.1,14.6,21.7c2.9,8.6,3.9,17.7,4.3,26.8
				c0.7,17.1-0.8,34.2-4.4,50.8"/>
			<path class="st2" d="M1987.3,392.8c-1.2-7.4-2.5-14.7-3.7-22.1c7.1,12.7,9.1,28.8,5.2,43.3c8.7-5.7,17.4-11.4,26-17.2
				c-1.3,2.6-2.6,5.1-3.8,7.7c3.9-1.4,7.8-2.9,11.7-4.3c-3.2,4.8-8.3,8-13.7,8.6c-3.1,0.3-6.2-0.2-9.2,0.6c-3,0.7-6,3.3-6,6.7
				c13.5,3.5,26,10.9,36,21.2c-2.7-0.2-5.6,0.8-7.7,2.8c-3.4-7.2-10.2-12.3-17.6-13.2c-1.2-0.2-2.5-0.2-3.7-0.5
				c-3.5-0.9-6.4-4.4-6.7-8.4c4.5,16.1,7.2,33,7.8,49.9c-2.6-1.4-5.1-2.7-7.7-4.1c0.6-6,1.2-12,1.8-18.1c-0.5,1.3-2.3,1.3-3.1,0.4
				c-0.9-1-1.1-2.4-1.2-3.8c-0.7-7-1.4-14-2.1-21c-10,1.4-19.5,7.2-25.8,15.9c0.1-1.8,0.3-3.5,0.4-5.3c-3.6,2.5-7.1,4.9-10.7,7.4
				c6.7-12.9,20-21.4,33.5-21.3c-5-7.4-12.5-12.7-20.9-14.6c-8.3-1.8-17.3-0.2-24.8,4.5c2.4-3.9,4.9-7.8,7.3-11.6
				c3.2,0.5,6.3,0.9,9.5,1.4c-5.2-5.6-12.1-9.3-19.4-10.5c16.9,3.6,32.9,11.6,46.4,23c-1.4-7.9-2.7-15.8-4.1-23.7
				C1983.1,388.7,1985.2,390.7,1987.3,392.8z"/>
		</g>
		<g>
			<path class="st0" d="M981.4,911.3l39.4,0.4c3.2-158,1.1-326.8-12.2-517.7l-26.1-0.3C1000.3,585.3,994.7,768.9,981.4,911.3z"/>
			<path class="st1" d="M1007.6,369.1c2.7-12.9,11.7-23.6,22.7-30c11-6.3,23.8-8.7,36.4-9c21.2-0.5,43.1,4.9,60.1,18.5
				c17,13.6,28.2,36,25.8,58l-0.5,0.7c-0.5-14.5-7.5-28.8-18.6-37.7c2.3,6.8,4,12,6.3,18.8c-9.1-2-18.6-4.1-27.7-6.1
				c-0.1-9.6-4.2-19-10.7-25.8c1.6,6.9,3.2,13.8,4.8,20.7c-5.8-10.9-11.5-21.8-17.3-32.7c0.3,11.1-3.7,21.5-9.3,30.9
				c-10.4,1.2-21.3-1-30.7-6.1c-1.6-5.5-2.7-11.4-4.3-16.9c1.8,7.7,0.2,16.2-2.3,23.5c-8.8,3-17.7,5.4-26.5,8.4
				c16.7-0.9,33.5-1,49.9,2.2c12.1,2.3,24.2,5.9,34.6,12.8c10.4,6.9,19,17.7,21.4,30.3c3.3,17.6-3.7,35.6-12.2,51
				c-4.4-4-8.6-7.9-13.1-11.9c3.8-9,6-18.6,7.5-28.3c-8.1,3.5-15.4,8.5-20.9,15.6c0.5-10-0.7-20-2.6-29.8c-3.8,4.3-7.7,9-10.4,14.1
				c-6.5-9-15.9-15.8-26.2-18.7c0.2,0.1,0.4,0.1,0.6,0.2c-0.4-5.2-1.9-10.4-4-15.2c-1.7,4-1.2,3.1-3,7c-0.6,1.4-3.6,1.6-5,2.3
				c6.4,2.3,11.7,12.2,15.4,18c3.7,5.9,6.1,12.6,8.1,19.3c4.2,14,7.3,28.5,7.5,43c0.2,14.6-2.5,29.4-9.3,42
				c-0.7-9.4-7.7-17.7-11-26.6c-2.8-7.7-3.3-16.3-1.4-24.3c-3.7,1.9-7.8,4.3-10.3,7.6c-2.6-13.7-5.2-27.5-7.8-41.2
				c-1.7,0.7-3.5,1.5-5.2,2.2c-1.6-11.4-3-22.9-4.5-34.3c-0.8,5.1-1.6,10.4-2.4,15.6c-1.4-8.7-4.9-17.1-9.5-24.5
				c-2.1,4.8-4.1,9.6-6.2,14.4c-0.9-3.5-1.7-7.1-2.6-10.6c-4,14.6-9.2,28.7-16.2,41.9c0.3-7.4-0.3-14.2,0-21.5
				c-5.5,14.8-7.4,31.1-5.7,47.1c-2.3-6.9-5.2-13.6-7.5-20.5c-3.2,14.3-2.3,29.4,2.6,43.3c-6-4.3-11.1-10.3-14.3-17.1
				c2.5,9.1,4.6,18.3,4.8,27.7c0.3,9.4-2,19.1-8,26c-11.8-18.6-17.4-41.2-17.5-63.4c0-22.2,6.4-44.2,18.2-62.4c3.9-6,8.4-11.7,14-16
				s11.1-8.8,18.9-10.3c-4.3-4.6-11.3-5.1-17.3-4.1c-18.4,3-34.9,15.5-43.3,32.8c0.1-11.2,1.8-22.5,6.5-32.4
				c-6.7,6.3-10.4,15.2-12.7,24.3c-2.3,9.1-3.5,18.5-6.1,27.5c-2.6,9-7,17.8-14.2,23.3c-1.5-9-3.6-18.9-5.1-27.9
				c-6.6,14.9-13.1,30.1-19.4,45.2c-6.9-23.1-7-48.7,0.3-71.4c5.7-17.6,16-34.1,31-44c11.2-7.4,24.9-10.8,38.2-9.7
				c13.4,1.2,26.4,7,36.5,16.3c-4.5-12.4-11.3-24-21.1-32.3c6-1.1,11.8-2,17.8-3.1c-0.5,0.1-0.9,0.2-1.4,0.3c-3.4-5-9.3-8-14.4-11.1
				c-5.1-3.1-10.3-5.9-14.7-10.1c-4.4-4.1-7.8-9.8-7.8-15.8c3.8-1,7.9-0.5,11.6,1.2c-0.5,0-1,0-1.4,0c-3.4-5.1-7.4-8.5-13-10.5
				c-5.6-2-11.5-2.6-17.3-3.3c6.8-3,13.7-5,20.9-6.8c7.2-1.8,14.8-2.4,22-0.6c8.6,2.2,16.2,7.9,22.1,15c5.9,7,10.1,15.3,13.7,23.8
				c6.8,16,11.4,32.9,13.7,50.1"/>
			<path class="st2" d="M988.4,356.7c-5.1-9.9-10.2-19.7-15.2-29.6c15.8,14.7,25.8,36.6,27,58.9c9.7-12,19.4-24,29.1-36
				c-0.7,4.2-1.3,8.4-2,12.6c4.9-3.8,9.7-7.6,14.6-11.4c-2.3,8.3-8.1,15.1-15.5,18.4c-4.2,1.8-8.8,2.5-12.7,4.9
				c-3.9,2.4-7,7.5-5.5,12.2c20.6-1.1,41.7,3.6,60.5,13.7c-4,1-7.5,3.7-9.6,7.5c-8-8.7-19.9-12.8-30.8-10.7c-1.8,0.3-3.6,0.9-5.5,1
				c-5.4,0.3-11-3.4-13.3-8.9c13.7,20.8,25,43.4,33.6,67.1c-4.3-0.8-8.5-1.5-12.8-2.3c-1.9-8.8-3.8-17.6-5.6-26.3
				c-0.1,2-2.6,2.9-4.3,1.9c-1.7-1-2.6-2.9-3.4-4.8c-4.1-9.6-8.3-19.2-12.4-28.7c-13.5,6.5-24.3,19-29.4,34.2
				c-0.6-2.6-1.2-5.1-1.8-7.7c-3.9,5.1-7.9,10.2-11.8,15.3c3.6-21.2,18.7-39.3,37.7-45.2c-10.4-8.3-23.5-12.3-36.1-11.2
				c-12.6,1.2-24.6,7.5-33,17.5c1.7-6.6,3.4-13.2,5.1-19.8c4.7-0.8,9.4-1.5,14-2.3c-9.9-5.6-21.4-7.7-32.2-6
				c25.5-2.5,51.8,1.5,76,11.6c-5.5-10.6-11-21.1-16.5-31.7C980.5,352.7,984.5,354.7,988.4,356.7z"/>
		</g>
		<g>
			<path class="st0" d="M2536,909.2l39.4,0.4c3.2-158,1.1-326.8-12.2-517.7l-26.1-0.3C2554.9,583.2,2549.3,766.8,2536,909.2z"/>
			<path class="st1" d="M2562.2,367c2.7-12.9,11.7-23.6,22.7-30c11-6.3,23.8-8.7,36.4-9c21.2-0.5,43.1,4.9,60.1,18.5
				c17,13.6,28.2,36,25.8,58l-0.5,0.7c-0.5-14.5-7.5-28.8-18.6-37.7c2.3,6.8,4,12,6.3,18.8c-9.1-2-18.6-4.1-27.7-6.1
				c-0.1-9.6-4.2-19-10.7-25.8c1.6,6.9,3.2,13.8,4.8,20.7c-5.8-10.9-11.5-21.8-17.3-32.7c0.3,11.1-3.7,21.5-9.3,30.9
				c-10.4,1.2-21.3-1-30.7-6.1c-1.6-5.5-2.7-11.4-4.3-16.9c1.8,7.7,0.2,16.2-2.3,23.5c-8.8,3-17.7,5.4-26.5,8.4
				c16.7-0.9,33.5-1,49.9,2.2c12.1,2.3,24.2,5.9,34.6,12.8c10.4,6.9,19,17.7,21.4,30.3c3.3,17.6-3.7,35.6-12.2,51
				c-4.4-4-8.6-7.9-13.1-11.9c3.8-9,6-18.6,7.5-28.3c-8.1,3.5-15.4,8.5-20.9,15.6c0.5-10-0.7-20-2.6-29.8c-3.8,4.3-7.7,9-10.4,14.1
				c-6.5-9-15.9-15.8-26.2-18.7c0.2,0.1,0.4,0.1,0.6,0.2c-0.4-5.2-1.9-10.4-4-15.2c-1.7,4-1.2,3.1-3,7c-0.6,1.4-3.6,1.6-5,2.3
				c6.4,2.3,11.7,12.2,15.4,18c3.7,5.9,6.1,12.6,8.1,19.3c4.2,14,7.3,28.5,7.5,43c0.2,14.6-2.5,29.4-9.3,42
				c-0.7-9.4-7.7-17.7-11-26.6c-2.8-7.7-3.3-16.3-1.4-24.3c-3.7,1.9-7.8,4.3-10.3,7.6c-2.6-13.7-5.2-27.5-7.8-41.2
				c-1.7,0.7-3.5,1.5-5.2,2.2c-1.6-11.4-3-22.9-4.5-34.3c-0.8,5.1-1.6,10.4-2.4,15.6c-1.4-8.7-4.9-17.1-9.5-24.5
				c-2.1,4.8-4.1,9.6-6.2,14.4c-0.9-3.5-1.7-7.1-2.6-10.6c-4,14.6-9.2,28.7-16.2,41.9c0.3-7.4-0.3-14.2,0-21.5
				c-5.5,14.8-7.4,31.1-5.7,47.1c-2.3-6.9-5.2-13.6-7.5-20.5c-3.2,14.3-2.3,29.4,2.6,43.3c-6-4.3-11.1-10.3-14.3-17.1
				c2.5,9.1,4.6,18.3,4.8,27.7c0.3,9.4-2,19.1-8,26c-11.8-18.6-17.4-41.2-17.5-63.4c0-22.2,6.4-44.2,18.2-62.4c3.9-6,8.4-11.7,14-16
				c5.6-4.3,11.1-8.8,18.9-10.3c-4.3-4.6-11.3-5.1-17.3-4.1c-18.4,3-34.9,15.5-43.3,32.8c0.1-11.2,1.8-22.5,6.5-32.4
				c-6.7,6.3-10.4,15.2-12.7,24.3c-2.3,9.1-3.5,18.5-6.1,27.5c-2.6,9-7,17.8-14.2,23.3c-1.5-9-3.6-18.9-5.1-27.9
				c-6.6,14.9-13.1,30.1-19.4,45.2c-6.9-23.1-7-48.7,0.3-71.4c5.7-17.6,16-34.1,31-44c11.2-7.4,24.9-10.8,38.2-9.7
				c13.4,1.2,26.4,7,36.5,16.3c-4.5-12.4-11.3-24-21.1-32.3c6-1.1,11.8-2,17.8-3.1c-0.5,0.1-0.9,0.2-1.4,0.3c-3.4-5-9.3-8-14.4-11.1
				c-5.1-3.1-10.3-5.9-14.7-10.1c-4.4-4.1-7.8-9.8-7.8-15.8c3.8-1,7.9-0.5,11.6,1.2c-0.5,0-1,0-1.4,0c-3.4-5.1-7.4-8.5-13-10.5
				c-5.6-2-11.5-2.6-17.3-3.3c6.8-3,13.7-5,20.9-6.8c7.2-1.8,14.8-2.4,22-0.6c8.6,2.2,16.2,7.9,22.1,15s10.1,15.3,13.7,23.8
				c6.8,16,11.4,32.9,13.7,50.1"/>
			<path class="st2" d="M2543,354.6c-5.1-9.9-10.2-19.7-15.2-29.6c15.8,14.7,25.8,36.6,27,58.9c9.7-12,19.4-24,29.1-36
				c-0.7,4.2-1.3,8.4-2,12.6c4.9-3.8,9.7-7.6,14.6-11.4c-2.3,8.3-8.1,15.1-15.5,18.4c-4.2,1.8-8.8,2.5-12.7,4.9
				c-3.9,2.4-7,7.5-5.5,12.2c20.6-1.1,41.7,3.6,60.5,13.7c-4,1-7.5,3.7-9.6,7.5c-8-8.7-19.9-12.8-30.8-10.7c-1.8,0.3-3.6,0.9-5.5,1
				c-5.4,0.3-11-3.4-13.3-8.9c13.7,20.8,25,43.4,33.6,67.1c-4.3-0.8-8.5-1.5-12.8-2.3c-1.9-8.8-3.8-17.6-5.6-26.3
				c-0.1,2-2.6,2.9-4.3,1.9c-1.7-1-2.6-2.9-3.4-4.8c-4.1-9.6-8.3-19.2-12.4-28.7c-13.5,6.5-24.3,19-29.4,34.2
				c-0.6-2.6-1.2-5.1-1.8-7.7c-3.9,5.1-7.9,10.2-11.8,15.3c3.6-21.2,18.7-39.3,37.7-45.2c-10.4-8.3-23.5-12.3-36.1-11.2
				c-12.6,1.2-24.6,7.5-33,17.5c1.7-6.6,3.4-13.2,5.1-19.8c4.7-0.8,9.4-1.5,14-2.3c-9.9-5.6-21.4-7.7-32.2-6
				c25.5-2.5,51.8,1.5,76,11.6c-5.5-10.6-11-21.1-16.5-31.7C2535.1,350.6,2539.1,352.6,2543,354.6z"/>
		</g>
	</g>
</g>
<g id="buildings">
	<g>
		<rect x="177.2" y="533.3" class="st3" width="350.2" height="379.6"/>
		<path class="st4" d="M2387.4,560.4h-303.7c-6,0-10.8-4.8-10.8-10.8v-39.5c0-6,4.8-10.8,10.8-10.8h303.7c6,0,10.8,4.8,10.8,10.8
			v39.5C2398.2,555.5,2393.4,560.4,2387.4,560.4z"/>
		<rect x="2032.5" y="588.4" class="st4" width="409.5" height="323.6"/>
		<rect x="2285.1" y="709.8" class="st5" width="121.4" height="201.4"/>
		<path class="st6" d="M2414.3,550.4h-355.1l-26.7,37.2H2442L2414.3,550.4z"/>
		<line class="st7" x1="1679.1" y1="490.2" x2="1709.7" y2="497"/>
		<line class="st7" x1="1789.8" y1="490.3" x2="1755" y2="496.7"/>
		<line class="st7" x1="1734" y1="451.4" x2="1734" y2="491.8"/>
		<line class="st7" x1="1768.6" y1="461.2" x2="1747.8" y2="492.2"/>
		<line class="st7" x1="1696.4" y1="462.3" x2="1718.9" y2="490.5"/>
		<ellipse class="st8" cx="1734" cy="511.6" rx="38.4" ry="38.8"/>
		<rect x="1618" y="500.9" class="st9" width="230.3" height="51.2"/>
		<rect x="1598.3" y="547.1" class="st8" width="269.8" height="364.2"/>
		<rect x="1611.9" y="561" class="st10" width="50.7" height="230.5"/>
		<rect x="1675.5" y="561" class="st10" width="50.7" height="230.5"/>
		<rect x="1740.7" y="561" class="st10" width="50.7" height="230.5"/>
		<rect x="1804.3" y="561" class="st10" width="50.7" height="230.5"/>
		<g>
			<g>
				<rect x="611.3" y="701.7" class="st6" width="372.2" height="209.6"/>
				<rect x="896.8" y="712.5" class="st11" width="72.3" height="173.5"/>
				<rect x="625.7" y="712.5" class="st11" width="253" height="173.5"/>
				<rect x="896.8" y="712.5" class="st12" width="19.9" height="43.4"/>
				<rect x="914.8" y="712.5" class="st13" width="19.9" height="43.4"/>
				<rect x="932.9" y="712.5" class="st12" width="18.1" height="43.4"/>
				<rect x="951" y="712.5" class="st13" width="18.1" height="43.4"/>
				<rect x="806.4" y="712.5" class="st12" width="19.9" height="43.4"/>
				<rect x="824.5" y="712.5" class="st13" width="19.9" height="43.4"/>
				<rect x="842.5" y="712.5" class="st12" width="18.1" height="43.4"/>
				<rect x="860.6" y="712.5" class="st13" width="18.1" height="43.4"/>
				<rect x="734.1" y="712.5" class="st12" width="19.9" height="43.4"/>
				<rect x="752.2" y="712.5" class="st13" width="19.9" height="43.4"/>
				<rect x="770.3" y="712.5" class="st12" width="18.1" height="43.4"/>
				<rect x="788.3" y="712.5" class="st13" width="18.1" height="43.4"/>
				<rect x="661.8" y="712.5" class="st12" width="19.9" height="43.4"/>
				<rect x="679.9" y="712.5" class="st13" width="19.9" height="43.4"/>
				<rect x="698" y="712.5" class="st12" width="18.1" height="43.4"/>
				<rect x="716.1" y="712.5" class="st13" width="18.1" height="43.4"/>
				<rect x="625.7" y="712.5" class="st12" width="18.1" height="43.4"/>
				<rect x="643.8" y="712.5" class="st13" width="18.1" height="43.4"/>
				<rect x="600" y="651.1" class="st6" width="394.6" height="50.6"/>
				<rect x="611.4" y="661.9" class="st11" width="371.9" height="32.5"/>
				<g>
					<polygon class="st6" points="680.9,777.3 739.6,836.1 733.7,841.9 					"/>
					<polygon class="st6" points="745.6,777.4 692.5,841.3 686.1,836 					"/>
					<circle class="st14" cx="682.3" cy="849.3" r="13.2"/>
					<circle class="st14" cx="741.1" cy="849.3" r="13.2"/>
				</g>
				<rect x="806.8" y="796.2" class="st6" width="25.5" height="66.3"/>
				<rect x="811.9" y="775.8" class="st6" width="15.3" height="20.4"/>
				<circle class="st6" cx="909.4" cy="815.5" r="7.2"/>
			</g>
			<text transform="matrix(1 0 0 1 634.166 691.4209)" class="st13 st15 st16">Hair and Care Salon</text>
		</g>
		<rect x="1626.3" y="812.2" class="st9" width="213.8" height="98.2"/>
		<rect x="1638.7" y="822.1" class="st17" width="190.7" height="88.3"/>
		<g>
			<rect x="1046.2" y="664.5" class="st18" width="407.1" height="247.1"/>
			<rect x="1024.4" y="601.2" class="st19" width="445.8" height="63"/>
			<rect x="1063.2" y="586.6" class="st20" width="373.1" height="63"/>
			<path class="st3" d="M1373.3,586.6c0,0-103.4-106.6-238.3,0H1373.3z"/>
			<g>
				<circle class="st19" cx="1218.7" cy="535.4" r="32"/>
				<circle class="st6" cx="1293.1" cy="537" r="32"/>
				<polygon class="st21" points="1303.4,566.5 1242.2,598.4 1261.3,532 				"/>
				<polygon class="st22" points="1207,564.8 1267,599 1250.4,531.9 				"/>
			</g>
			<rect x="1086.5" y="686.5" class="st23" width="47" height="88.5"/>
			<polygon class="st3" points="1421.8,910.6 1325,911.4 1325,690.7 1421.8,689.9 			"/>
			<line class="st24" x1="1086.9" y1="730.6" x2="1133.7" y2="730.6"/>
			<rect x="1152" y="686.5" class="st23" width="47" height="88.5"/>
			<rect x="1239.9" y="804.8" class="st23" width="48.6" height="88.5"/>
			<line class="st24" x1="1152.3" y1="730.6" x2="1199.2" y2="730.6"/>
			<line class="st24" x1="1238.3" y1="848.9" x2="1289" y2="848.9"/>
			<rect x="1338.8" y="796.5" class="st20" width="24.9" height="10.4"/>
			<text transform="matrix(1 0 0 1 1087.23 633.3311)" class="st25 st15 st26">Vegan Ice Cream</text>
		</g>
		<line class="st27" x1="1732.8" y1="820.4" x2="1732.8" y2="910.4"/>
		<ellipse class="st8" cx="1754.3" cy="877.8" rx="7.8" ry="5"/>
		<ellipse class="st8" cx="1709.3" cy="878.2" rx="7.8" ry="5"/>
		<text transform="matrix(1 0 0 1 1631.0557 536.3521)" class="st28 st15 st29">Yoga Center</text>
		<path class="st6" d="M2354.5,657.2c0,19.5-29.5,19.5-29.5,0V587h29.5V657.2z"/>
		<path class="st5" d="M2383.4,657.2c0,19.5-29.1,19.5-29.1,0l0.2-70.5l28.9,0.3L2383.4,657.2z"/>
		<path class="st6" d="M2412.7,657.2c0,19.5-29.2,19.5-29.2,0V587h29.2V657.2z"/>
		<path class="st5" d="M2442,657.2c0,19.5-29.2,19.5-29.2,0V587h29.2V657.2z"/>
		<path class="st6" d="M2237.2,657.2c0,19.5-29.2,19.5-29.2,0V587h29.2V657.2z"/>
		<path class="st5" d="M2266.1,657.2c0,19.5-28.9,19.5-28.9,0V587h28.9V657.2z"/>
		<path class="st6" d="M2295.8,657.2c0,19.5-29.2,19.5-29.2,0l0-70.2h29.2V657.2z"/>
		<path class="st5" d="M2325,657.2c0,19.5-29.2,19.5-29.2,0V587h29.2V657.2z"/>
		<path class="st6" d="M2120,657.2c0,19.5-29,19.5-29,0V587h29V657.2z"/>
		<path class="st6" d="M2178.8,657.2c0,19.5-29.2,19.5-29.2,0V587h29.2V657.2z"/>
		<path class="st5" d="M2208,657.2c0,19.5-29.2,19.5-29.2,0V587h29.2V657.2z"/>
		<path class="st6" d="M2061.8,657.2c0,19.5-29.2,19.5-29.2,0l0-70.2h29.2V657.2z"/>
		<path class="st5" d="M2091,657.2c0,19.5-29.2,19.5-29.2,0V587h29.2V657.2z"/>
		<polygon class="st5" points="2083.5,550.4 2108.2,550.4 2091.4,587.6 2091,588.4 2061.8,588.4 2062.2,586.8 		"/>
		<polygon class="st5" points="2442,587.6 2413.1,590.1 2411.8,587.6 2392.5,550.4 2414.3,550.4 		"/>
		<polygon class="st5" points="2345.8,550.4 2354.5,586.8 2354.7,587.6 2361.1,611.5 2382.9,587.6 2383.4,587 2371.5,550.4 		"/>
		<polygon class="st5" points="2325,587 2319.6,587.6 2295.8,590.1 2295.6,587.6 2290.1,550.4 2317.8,550.4 		"/>
		<polygon class="st5" points="2266.1,550.4 2266.1,587 2260.8,587.6 2237.3,590.1 2237.3,587.6 2237.2,550.4 		"/>
		<polygon class="st5" points="2210.9,550.4 2208,587 2178.6,587.6 2187.2,550.4 		"/>
		<polygon class="st5" points="2159.1,550.4 2149.7,587.6 2120,587.6 2135.2,550.4 		"/>
		<path class="st5" d="M2149.7,657.2c0,19.5-29.4,19.5-29.4,0l-0.3-69.6l29.7-0.6L2149.7,657.2z"/>
		<line class="st30" x1="2371.5" y1="550.4" x2="2345.8" y2="550.4"/>
		<g>
			<path class="st5" d="M2072.9,850.5c0.3-0.3,0.5-0.7,0.8-0.8c6.9-2.8,9.9-9,12.6-15.3c3.4-8.2,6.7-16.4,7.5-25.4
				c0.5-5.4,2.3-10.4,6.8-14.1c1.3-1.1,1.7-3.2,2.6-4.7c1.1-1.8,2.3-3.6,3.8-5c1.7-1.5,1.4-2.7,0.4-4.4c-1-1.9-2.1-3.9-2.4-6
				c-0.5-2.9,1.4-4.1,3.8-2.4c2.1,1.5,3.9,3.6,5.6,5.6c1.2,1.5,2.4,2,4.4,1.9c8.2-0.3,16.4,0.1,24.6-0.6c6.3-0.5,12.6-2,18.8-3.5
				c5.6-1.3,11-3.2,16.4-5c0.8-0.3,1.7-0.8,2.3-1.5c7.2-8,14.4-16.1,21.5-24.2c0.5-0.5,0.8-1.5,0.8-2.2c0-3.6,1.4-5.3,5-5.6
				c2.9-0.2,5.9,0.4,8.6-1.4c0.5-0.4,2.1-0.1,2.6,0.5c1.8,1.8,3.7,1.4,5.8,1.1c5.5-0.8,7.1,0.3,9.1,5.4c0.6,1.4,1.4,2.7,2.1,4
				c0.2,0.4,0.7,0.9,0.6,1.3c-1.1,3.3,1.1,4.2,3.5,5.2c1.5,0.7,2.9,1.8,1.7,4.1c-0.4,0.8,0.3,2.4,0.9,3.4c1.1,1.9,0.7,3.5-0.7,4.9
				c-3,3-6.2,5.9-11,4c-0.5-0.2-1.2-0.1-1.6,0.2c-4,2-7.4,1.4-9.9-2.4c-5,1.8-9.2,9.2-8.8,15.6c0.3,4,0.7,8,1.5,11.9
				c1.4,7.3,0.8,14-4,20c-3.8,4.8-5.2,10.3-5.6,16.5c-0.6,11.3-2,22.7-3.1,34c-0.1,1.2-0.4,2.5-0.2,3.7c0.3,1.2,1,2.4,1.7,3.5
				c0.4,0.8,1.4,1.6,1.3,2.2c-0.1,0.7-1.2,1.7-1.9,1.8c-2.4,0.2-4.9,0.2-7.3-0.2c-1.9-0.3-2.8-1.9-2.6-3.9c0.2-1.7,0.5-3.4,0.4-5.1
				c-0.1-1.3-0.7-2.6-1-3.9c-0.2-1.1-0.5-2.2-0.5-3.3c0.3-6.2,0.8-12.3,1.2-18.5c-0.3-0.1-0.6-0.1-0.9-0.2c-0.5,1.9-1.2,3.7-1.3,5.6
				c-0.9,9.8-1.7,19.6-2.4,29.4c-0.2,3.2,0.5,5.9,3.6,7.9c2.2,1.4,1.7,2.2-1.9,4.1c-1.9,0-3.8,0-5.7,0c-3.1-1.4-3.5-3.9-3.4-7.1
				c0.2-4.1,0.1-8.2-0.1-12.2c-0.1-2.3-1.5-4.7-1-6.7c1.7-6.7,0.2-13.1-0.5-19.6c-0.4-4.6-1.2-9.1-2-13.6c-0.4-2.4-1.7-3.9-4.7-4
				c-4.1-0.2-8.5-0.3-12.1-1.9c-5.9-2.5-12.3-4.2-17.2-8.8c-1-1-2.5-1.4-4.1-2.3c-0.1,1.6-0.2,2.5-0.2,3.5
				c-0.9,9.8-4.4,18.4-11.8,25.1c-5.9,5.3-7,9.6-3.4,16.7c0.9,1.8,2,3,4.4,3c3.2-0.1,5.3,1.9,6.9,4.7c-6.4,2.9-16.2,1.8-18.7-6.6
				c-1.2-3.9-2.6-7.8-3.9-11.7c-0.9-2.8-0.2-4.9,2.2-6.7c6.1-4.8,7.4-15.2,2.7-22.2c-2.3,3.2-4.4,6.4-6.8,9.3
				c-2.1,2.6-4.3,5.1-6.6,7.4c-6.4,6.3-12.9,12.5-19.2,18.8c-0.9,0.9-1.7,2.3-1.8,3.5c-0.3,4.2-0.5,8.4-0.2,12.5
				c0.1,1.5,1.7,3,2.6,4.5c0.5,0.8,1.3,1.7,1.2,2.3c-0.1,0.7-1.2,1.5-2,1.7c-3.6,1.1-7,0.6-9.8-2.2
				C2072.9,867.7,2072.9,859.1,2072.9,850.5z"/>
		</g>
		<circle class="st6" cx="2320.8" cy="815.2" r="13.5"/>
		<text transform="matrix(1 0 0 1 2136.8037 537.1016)" class="st5 st15 st31">Dog Parlor</text>
		<rect x="267.1" y="544.4" class="st19" width="16.2" height="368.5"/>
		<rect x="428.1" y="544.4" class="st19" width="16.2" height="368.5"/>
		<rect x="261.9" y="654.3" class="st19" width="27.1" height="5.8"/>
		<rect x="422.9" y="654.3" class="st19" width="27.1" height="5.8"/>
		<rect x="420" y="648.6" class="st19" width="32.9" height="5.8"/>
		<rect x="258.4" y="648.6" class="st19" width="32.9" height="5.8"/>
		<rect x="261.9" y="542.1" class="st19" width="27.1" height="4.4"/>
		<rect x="422.9" y="542.1" class="st19" width="27.1" height="4.4"/>
		<rect x="420" y="537.7" class="st19" width="32.9" height="4.4"/>
		<rect x="258.4" y="537.7" class="st19" width="32.9" height="4.4"/>
		<rect x="254.4" y="533.3" class="st19" width="41" height="4.4"/>
		<rect x="416" y="533.3" class="st19" width="41" height="4.4"/>
		<rect x="261.9" y="809.7" class="st19" width="27.1" height="5.8"/>
		<rect x="422.9" y="809.7" class="st19" width="27.1" height="5.8"/>
		<rect x="420" y="815.5" class="st19" width="32.9" height="5.8"/>
		<rect x="258.4" y="815.5" class="st19" width="32.9" height="5.8"/>
		<rect x="177.2" y="523.2" class="st19" width="350.2" height="10.1"/>
		<rect x="308.4" y="648.6" class="st32" width="89.7" height="264.3"/>
		<rect x="318.1" y="657.2" class="st19" width="71.4" height="135.1"/>
		<rect x="318.1" y="801.9" class="st19" width="71.4" height="110.9"/>
		<rect x="348.9" y="788.4" class="st20" width="35.7" height="18.3"/>
		<rect x="199.4" y="579.1" class="st32" width="37.6" height="138"/>
		<rect x="469.5" y="579.1" class="st32" width="37.6" height="138"/>
		<rect x="191.7" y="710.3" class="st19" width="55" height="6.8"/>
		<rect x="460.8" y="710.3" class="st19" width="55" height="6.8"/>
		<rect x="177.2" y="474.5" class="st19" width="350.2" height="48.7"/>
		<text transform="matrix(1 0 0 1 192.5244 513.7515)" class="st33 st15 st34">Meditation Center</text>
		<text transform="matrix(1 0 0 1 1087.2588 9.0635)" class="st35 st36">F9BA67</text>
	</g>
</g>
<g id="lamps">
	<g>
		<rect x="1529.1" y="624.3" class="st17" width="8.3" height="246.9"/>
		<rect x="1520" y="624.3" class="st17" width="26.4" height="6.6"/>
		<rect x="1514.2" y="630.9" class="st17" width="38" height="6.6"/>
		<rect x="1520" y="574.8" class="st17" width="26.4" height="6.6"/>
		<rect x="1524.1" y="568.2" class="st17" width="18.2" height="6.6"/>
		<rect x="1512.6" y="581.4" class="st17" width="41.3" height="6.6"/>
		<polygon class="st37" points="1515.7,588 1520,624.3 1546.4,624.3 1550.8,588 		"/>
	</g>
	<g>
		<rect x="565.6" y="630.9" class="st17" width="8.3" height="246.9"/>
		<rect x="556.5" y="630.9" class="st17" width="26.4" height="6.6"/>
		<rect x="550.7" y="637.5" class="st17" width="38" height="6.6"/>
		<rect x="556.5" y="581.4" class="st17" width="26.4" height="6.6"/>
		<rect x="560.6" y="574.8" class="st17" width="18.2" height="6.6"/>
		<rect x="549.1" y="588" class="st17" width="41.3" height="6.6"/>
		<polygon class="st37" points="552.2,594.6 556.5,630.9 582.9,630.9 587.3,594.6 		"/>
	</g>
	<g>
		<rect x="2490.1" y="627.6" class="st17" width="8.3" height="246.9"/>
		<rect x="2481" y="627.6" class="st17" width="26.4" height="6.6"/>
		<rect x="2475.2" y="634.2" class="st17" width="38" height="6.6"/>
		<rect x="2481" y="578.1" class="st17" width="26.4" height="6.6"/>
		<rect x="2485.1" y="571.5" class="st17" width="18.2" height="6.6"/>
		<rect x="2473.6" y="584.7" class="st17" width="41.3" height="6.6"/>
		<polygon class="st37" points="2476.7,591.3 2481,627.6 2507.4,627.6 2511.8,591.3 		"/>
	</g>
</g>
<g id="colorPalette">
	<rect x="-2211" y="-719" class="st18" width="331" height="331"/>
	<rect x="-2623" y="-719" class="st38" width="331" height="331"/>
	<rect x="-1422" y="-719" class="st8" width="331" height="331"/>
	<rect x="-1826" y="-719" class="st19" width="331" height="331"/>
	<rect x="-1013" y="-719" class="st6" width="331" height="331"/>
</g>
<g id="sun">
	<circle class="st18" cx="1420.4" cy="204.2" r="102.4"/>
</g>
<g id="bushes_x26_road">
	<path class="st39" d="M1433.7,911.6l195.8-0.8c3.5-18.1-4.3-29.9-20.3-30.9c5.2-16.5-8.2-27.9-27.9-22
		c0.3-19.7-21.7-21.8-31.7-12.1c-5.2-18.3-26.2-15.2-31.4-1.7c-11.8-3.5-27.6-5.5-30,12.8c-16.2-1.2-29.3,6.5-29.6,23.8
		C1440.5,881.8,1432.6,892.9,1433.7,911.6z"/>
	<path class="st39" d="M1854.8,911.6l195.8-0.8c3.5-18.1-4.3-29.9-20.3-30.9c5.2-16.5-8.2-27.9-27.9-22
		c0.3-19.7-21.7-21.8-31.7-12.1c-5.2-18.3-26.2-15.2-31.4-1.7c-11.8-3.5-27.6-5.5-30,12.8c-16.2-1.2-29.3,6.5-29.6,23.8
		C1861.5,881.8,1853.6,892.9,1854.8,911.6z"/>
	<path class="st39" d="M483.4,912.4l195.8-0.8c3.5-18.1-4.3-29.9-20.3-30.9c5.2-16.5-8.2-27.9-27.9-22c0.3-19.7-21.7-21.8-31.7-12.1
		c-5.2-18.3-26.2-15.2-31.4-1.7c-11.8-3.5-27.6-5.5-30,12.8c-16.2-1.2-29.3,6.5-29.6,23.8C490.2,882.6,482.3,893.8,483.4,912.4z"/>
	<path class="st39" d="M12,913.2l195.8-0.8c3.5-18.1-4.3-29.9-20.3-30.9c5.2-16.5-8.2-27.9-27.9-22c0.3-19.7-21.7-21.8-31.7-12.1
		c-5.2-18.3-26.2-15.2-31.4-1.7c-11.8-3.5-27.6-5.5-30,12.8c-16.2-1.2-29.3,6.5-29.6,23.8C18.8,883.4,10.9,894.6,12,913.2z"/>
	<rect x="2.2" y="911.6" class="st37" width="2629.6" height="155.2"/>
	<path class="st39" d="M2435.2,910.7l195.8-0.8c3.5-18.1-4.3-29.9-20.3-30.9c5.2-16.5-8.2-27.9-27.9-22
		c0.3-19.7-21.7-21.8-31.7-12.1c-5.2-18.3-26.2-15.2-31.4-1.7c-11.8-3.5-27.6-5.5-30,12.8c-16.2-1.2-29.3,6.5-29.6,23.8
		C2441.9,880.9,2434,892.1,2435.2,910.7z"/>
</g>
<g id="car">
	<g>
		<path class="st40" d="M-420.9-59.5v504.6C-167.5,231.5,168,27.6,535.4,14.8c20.9-0.7,41.7,4.6,60.6,16.9
			c25.7,16.8,51.5,48.5,39.4,106.8c-22,106-172.7,807.3-172.7,807.3h-883.6v276.1h2683.8V-59.5H-420.9z M693.7,945.8l151.8-745.2
			c1.7-8.5,17.6-90.9,20.6-104.8c4.5-20.5,15.5-77.5,67.4-80c49.4-2.3,848.5,40.9,1013.1,49.9c19,1,36.2,12,45.6,29
			c47.1,85.3,182.9,369.6,208.3,851.1H693.7z"/>
		<path class="st41" d="M669.5,188.1h149.6l-92.4,440.9c0,0-101.2,42.9-154-15.3L669.5,188.1z"/>
		<path class="st42" d="M671.7,264.6"/>
		<path class="st43" d="M783.9,255.5l-11,51.9c0,0,0,0.1-0.1,0.1l-112-3.1c0,0-0.1,0-0.1-0.1l11-48.8c0,0,0-0.1,0.1-0.1L783.9,255.5
			C783.9,255.4,783.9,255.5,783.9,255.5z"/>
		<path class="st44" d="M758.4,304.5l-138,917.4h-94c106.8-640.5,145.4-934.2,145.4-934.2C748.7,245.7,758.4,304.5,758.4,304.5z"/>
		<path class="st41" d="M1030.3,1012.4h33.3c11.5,0,19.3,12.1,14.9,23.2l-22.8,57.7c-8,20.3-27.1,33.6-48.2,33.6H846.8
			c-8.7,0-14.8-9-11.9-17.5l10.5-31c1.8-5.2,6.5-8.8,11.9-8.8h107.3c12,0,22.9-7.2,28-18.5l8.9-19.7
			C1006.8,1019.8,1018,1012.4,1030.3,1012.4z"/>
		<path class="st41" d="M1135.8,1028l-21.2,66.9c-4.9,15.5,6.3,31.3,21.9,31.1l1001.2-15.5c12.4-0.2,22.4-10.7,22.4-23.7v-51.3
			c0-13.1-10.2-23.7-22.7-23.7h-980C1147.6,1011.7,1138.9,1018.3,1135.8,1028z"/>
		<path class="st41" d="M348.1,1035.4v51.3c0,12.9-9.1,23.5-20.3,23.7l-747.3,12.8v-111.5h747
			C338.8,1011.7,348.1,1022.3,348.1,1035.4z"/>
	</g>
</g>
</svg>
