<?xml version="1.0" encoding="utf-8"?>
<!-- Generator: Adobe Illustrator 19.0.0, SVG Export Plug-In . SVG Version: 6.00 Build 0)  -->
<svg version="1.1" id="transition" style="width: 120vw;" xmlns="http://www.w3.org/2000/svg" xmlns:xlink="http://www.w3.org/1999/xlink" x="0px" y="0px"
	 viewBox="0 0 1920 1080" style="enable-background:new 0 0 1920 1080;" xml:space="preserve">
<style type="text/css">
	.w0{fill:#58BDD5;}
	.w1{fill:#2C82AF;}
	.w2{fill:#7DD0E2;}
</style>
<g class="wave">
	<path id="XMLID_7_" class="w0" d="M2658.2,248.3c-325.3,39.5-493.4-325-801-325c-309.5,0-536,332.5-910,332.5s-445-305-696.5-301
		c-266.6,4.3-485.8,189.2-705.1,202.1c-87.7,5.2-202.1-80.6-292.4-129.5v1322.9h3405V248.3z"/>
</g>
<g class="wave">
	<path id="XMLID_19_" class="w1" d="M2654.4,100.5c-240.1,37.3-488.7,253.3-702.9,247.7c-245.1-6.4-432.4-245.1-683.6-238.6
		c-219.6,5.7-262.6,187-670.7,187C145.3,296.7,138.9,62.3-131.9,62.3c-212.9,0-335.4,165.5-618.6,173v1177.1h3405V100.5z"/>
</g>
<g class="wave">
	<path id="XMLID_21_" class="w2"  d="M2654.1,319.6c-90.2,38.9-201.5,76.7-303.1,82.7c-219.3,12.9-367.6-258-632-258
		s-548.1,258-754.5,258s-296.6-258-535.3-258c-238.6,0-393.4,219.3-670.7,206.4c-210.9-9.8-338.5-180-509.5-260.9v1260.5h3405V319.6
		z"/>
</g>
<g class="wave">
	<path id="XMLID_25_" class= "w0" d="M2673.4,490.1c-131.4-5.2-159.1-105.3-316-109.6c-240.7-6.6-356.5,194-556.4,187.4
		c-529.2-17.6-615.2-258-915.7-258c-245.4,0-376.6,180.2-709.4,187c-226.5,4.6-348.7-242.2-522.8-238.3
		c-190.6,4.3-252.1,77.2-399.8,126.1l13.4,1040.8h3405L2673.4,490.1z"/>
</g>
<g class="wave">
	<path id="XMLID_27_" class="w1" d="M2671.6,463.9c-303.8,91-735.2,91-735.2,91c-225.7,0-335.3-245.1-625.5-245.1
		s-445,258-625.5,270.8C504.8,593.6,414.5,387.2,221,387.2s-380.5,141.9-593.3,141.9c-133.4,0-274.5-63.4-361.1-110.7v1007.1h3405
		V463.9z"/>
</g>
</svg>
